<mxfile host="65bd71144e">
    <diagram id="IEKkhjLzylwrEzwAkYek" name="Page-1">
        <mxGraphModel dx="6537" dy="6147" grid="1" gridSize="10" guides="1" tooltips="1" connect="1" arrows="1" fold="1" page="1" pageScale="1" pageWidth="850" pageHeight="1100" math="0" shadow="0">
            <root>
                <mxCell id="0"/>
                <mxCell id="1" parent="0"/>
                <mxCell id="2" value="helpers" style="shape=folder;fontStyle=1;tabWidth=110;tabHeight=30;tabPosition=left;html=1;boundedLbl=1;labelInHeader=1;container=1;collapsible=0;recursiveResize=0;movable=1;resizable=1;rotatable=1;deletable=1;editable=1;connectable=1;" parent="1" vertex="1">
                    <mxGeometry x="1800" y="740" width="340" height="260" as="geometry"/>
                </mxCell>
                <mxCell id="17" value="&lt;div style=&quot;color: rgb(212, 212, 212); background-color: rgb(30, 30, 30); font-family: Consolas, &amp;quot;Courier New&amp;quot;, monospace; font-size: 14px; line-height: 19px;&quot;&gt;&lt;div style=&quot;line-height: 19px;&quot;&gt;&lt;div style=&quot;line-height: 19px;&quot;&gt;&lt;span style=&quot;color: #dcdcaa;&quot;&gt;choice&lt;/span&gt;&lt;/div&gt;&lt;/div&gt;&lt;/div&gt;" style="html=1;" parent="2" vertex="1">
                    <mxGeometry x="30" y="50" width="110" height="30" as="geometry"/>
                </mxCell>
                <mxCell id="19" value="&lt;div style=&quot;color: rgb(212, 212, 212); background-color: rgb(30, 30, 30); font-family: Consolas, &amp;quot;Courier New&amp;quot;, monospace; font-size: 14px; line-height: 19px;&quot;&gt;&lt;div style=&quot;line-height: 19px;&quot;&gt;&lt;div style=&quot;line-height: 19px;&quot;&gt;&lt;div style=&quot;line-height: 19px;&quot;&gt;&lt;span style=&quot;color: #dcdcaa;&quot;&gt;removeItem&lt;/span&gt;&lt;/div&gt;&lt;/div&gt;&lt;/div&gt;&lt;/div&gt;" style="html=1;" parent="2" vertex="1">
                    <mxGeometry x="30" y="100" width="110" height="30" as="geometry"/>
                </mxCell>
                <mxCell id="42" value="&lt;div style=&quot;color: rgb(212, 212, 212); background-color: rgb(30, 30, 30); font-family: Consolas, &amp;quot;Courier New&amp;quot;, monospace; font-size: 14px; line-height: 19px;&quot;&gt;&lt;div style=&quot;line-height: 19px;&quot;&gt;&lt;div style=&quot;line-height: 19px;&quot;&gt;&lt;div style=&quot;line-height: 19px;&quot;&gt;&lt;div style=&quot;line-height: 19px;&quot;&gt;&lt;span style=&quot;color: #dcdcaa;&quot;&gt;StringIsAlphaNumeric&lt;/span&gt;&lt;/div&gt;&lt;/div&gt;&lt;/div&gt;&lt;/div&gt;&lt;/div&gt;" style="html=1;" parent="2" vertex="1">
                    <mxGeometry x="30" y="220" width="170" height="30" as="geometry"/>
                </mxCell>
                <mxCell id="74" value="&lt;div style=&quot;color: rgb(212, 212, 212); background-color: rgb(30, 30, 30); font-family: Consolas, &amp;quot;Courier New&amp;quot;, monospace; font-size: 14px; line-height: 19px;&quot;&gt;&lt;div style=&quot;line-height: 19px;&quot;&gt;&lt;div style=&quot;line-height: 19px;&quot;&gt;&lt;div style=&quot;line-height: 19px;&quot;&gt;&lt;span style=&quot;color: #dcdcaa;&quot;&gt;isCard&lt;/span&gt;&lt;/div&gt;&lt;/div&gt;&lt;/div&gt;&lt;/div&gt;" style="html=1;" parent="2" vertex="1">
                    <mxGeometry x="210" y="50" width="110" height="30" as="geometry"/>
                </mxCell>
                <mxCell id="4" value="&lt;div style=&quot;color: rgb(212, 212, 212); background-color: rgb(30, 30, 30); font-family: Consolas, &amp;quot;Courier New&amp;quot;, monospace; font-size: 14px; line-height: 19px;&quot;&gt;&lt;div style=&quot;line-height: 19px;&quot;&gt;&lt;span style=&quot;color: #9cdcfe;&quot;&gt;cardColors&lt;/span&gt;&lt;/div&gt;&lt;/div&gt;" style="html=1;" parent="1" vertex="1">
                    <mxGeometry x="-130" y="-555" width="110" height="30" as="geometry"/>
                </mxCell>
                <mxCell id="6" value="&lt;div style=&quot;color: rgb(212, 212, 212); background-color: rgb(30, 30, 30); font-family: Consolas, &amp;quot;Courier New&amp;quot;, monospace; font-size: 14px; line-height: 19px;&quot;&gt;&lt;div style=&quot;line-height: 19px;&quot;&gt;&lt;span style=&quot;color: #9cdcfe;&quot;&gt;cardValues&lt;/span&gt;&lt;/div&gt;&lt;/div&gt;" style="html=1;" parent="1" vertex="1">
                    <mxGeometry x="70" y="-555" width="110" height="30" as="geometry"/>
                </mxCell>
                <mxCell id="10" style="edgeStyle=none;html=1;entryX=0.5;entryY=1;entryDx=0;entryDy=0;" parent="1" source="9" target="6" edge="1">
                    <mxGeometry relative="1" as="geometry"/>
                </mxCell>
                <mxCell id="11" style="edgeStyle=none;html=1;" parent="1" source="9" target="4" edge="1">
                    <mxGeometry relative="1" as="geometry"/>
                </mxCell>
                <mxCell id="28" style="edgeStyle=none;html=1;" parent="1" source="9" target="27" edge="1">
                    <mxGeometry relative="1" as="geometry"/>
                </mxCell>
                <mxCell id="9" value="&lt;div style=&quot;color: rgb(212, 212, 212); background-color: rgb(30, 30, 30); font-family: Consolas, &amp;quot;Courier New&amp;quot;, monospace; font-size: 14px; line-height: 19px;&quot;&gt;&lt;div style=&quot;line-height: 19px;&quot;&gt;&lt;div style=&quot;line-height: 19px;&quot;&gt;&lt;span style=&quot;color: #9cdcfe;&quot;&gt;cardDeck&lt;/span&gt;&lt;/div&gt;&lt;/div&gt;&lt;/div&gt;" style="html=1;" parent="1" vertex="1">
                    <mxGeometry x="330" y="-397.5" width="110" height="30" as="geometry"/>
                </mxCell>
                <mxCell id="12" value="&lt;div style=&quot;color: rgb(212, 212, 212); background-color: rgb(30, 30, 30); font-family: Consolas, &amp;quot;Courier New&amp;quot;, monospace; font-size: 14px; line-height: 19px;&quot;&gt;&lt;div style=&quot;line-height: 19px;&quot;&gt;&lt;div style=&quot;line-height: 19px;&quot;&gt;&lt;div style=&quot;line-height: 19px;&quot;&gt;&lt;span style=&quot;color: #9cdcfe;&quot;&gt;playerIds&lt;/span&gt;&lt;/div&gt;&lt;/div&gt;&lt;/div&gt;&lt;/div&gt;" style="html=1;" parent="1" vertex="1">
                    <mxGeometry x="2180" y="-1050" width="110" height="30" as="geometry"/>
                </mxCell>
                <mxCell id="14" style="edgeStyle=none;html=1;" parent="1" source="13" target="12" edge="1">
                    <mxGeometry relative="1" as="geometry"/>
                </mxCell>
                <mxCell id="13" value="&lt;div style=&quot;color: rgb(212, 212, 212); background-color: rgb(30, 30, 30); font-family: Consolas, &amp;quot;Courier New&amp;quot;, monospace; font-size: 14px; line-height: 19px;&quot;&gt;&lt;div style=&quot;line-height: 19px;&quot;&gt;&lt;div style=&quot;line-height: 19px;&quot;&gt;&lt;div style=&quot;line-height: 19px;&quot;&gt;&lt;div style=&quot;line-height: 19px;&quot;&gt;&lt;span style=&quot;color: #dcdcaa;&quot;&gt;getNewplayerId&lt;/span&gt;&lt;/div&gt;&lt;/div&gt;&lt;/div&gt;&lt;/div&gt;&lt;/div&gt;" style="html=1;" parent="1" vertex="1">
                    <mxGeometry x="2080" y="-900" width="110" height="30" as="geometry"/>
                </mxCell>
                <mxCell id="91" style="edgeStyle=none;html=1;" parent="1" source="15" target="12" edge="1">
                    <mxGeometry relative="1" as="geometry"/>
                </mxCell>
                <mxCell id="15" value="&lt;div style=&quot;color: rgb(212, 212, 212); background-color: rgb(30, 30, 30); font-family: Consolas, &amp;quot;Courier New&amp;quot;, monospace; font-size: 14px; line-height: 19px;&quot;&gt;&lt;div style=&quot;line-height: 19px;&quot;&gt;&lt;div style=&quot;line-height: 19px;&quot;&gt;&lt;div style=&quot;line-height: 19px;&quot;&gt;&lt;div style=&quot;line-height: 19px;&quot;&gt;&lt;div style=&quot;line-height: 19px;&quot;&gt;&lt;span style=&quot;color: #dcdcaa;&quot;&gt;remove&lt;/span&gt;&lt;/div&gt;&lt;/div&gt;&lt;/div&gt;&lt;/div&gt;&lt;/div&gt;&lt;/div&gt;" style="html=1;" parent="1" vertex="1">
                    <mxGeometry x="2230" y="-900" width="110" height="30" as="geometry"/>
                </mxCell>
                <mxCell id="72" style="edgeStyle=none;html=1;" parent="1" source="18" target="27" edge="1">
                    <mxGeometry relative="1" as="geometry"/>
                </mxCell>
                <mxCell id="18" value="&lt;div style=&quot;color: rgb(212, 212, 212); background-color: rgb(30, 30, 30); font-family: Consolas, &amp;quot;Courier New&amp;quot;, monospace; font-size: 14px; line-height: 19px;&quot;&gt;&lt;div style=&quot;line-height: 19px;&quot;&gt;&lt;div style=&quot;line-height: 19px;&quot;&gt;&lt;span style=&quot;color: #dcdcaa;&quot;&gt;removeCard&lt;/span&gt;&lt;/div&gt;&lt;/div&gt;&lt;/div&gt;" style="html=1;" parent="1" vertex="1">
                    <mxGeometry x="10" y="-397.5" width="110" height="30" as="geometry"/>
                </mxCell>
                <mxCell id="22" style="edgeStyle=none;html=1;entryX=0.5;entryY=1;entryDx=0;entryDy=0;" parent="1" source="20" target="21" edge="1">
                    <mxGeometry relative="1" as="geometry"/>
                </mxCell>
                <mxCell id="20" value="&lt;div style=&quot;color: rgb(212, 212, 212); background-color: rgb(30, 30, 30); font-family: Consolas, &amp;quot;Courier New&amp;quot;, monospace; font-size: 14px; line-height: 19px;&quot;&gt;&lt;div style=&quot;line-height: 19px;&quot;&gt;&lt;div style=&quot;line-height: 19px;&quot;&gt;&lt;div style=&quot;line-height: 19px;&quot;&gt;&lt;div style=&quot;line-height: 19px;&quot;&gt;&lt;div style=&quot;line-height: 19px;&quot;&gt;&lt;span style=&quot;color: #dcdcaa;&quot;&gt;getPlayersOnTable&lt;/span&gt;&lt;/div&gt;&lt;/div&gt;&lt;/div&gt;&lt;/div&gt;&lt;/div&gt;&lt;/div&gt;" style="html=1;" parent="1" vertex="1">
                    <mxGeometry x="855" y="-742.5" width="160" height="30" as="geometry"/>
                </mxCell>
                <mxCell id="21" value="&lt;div style=&quot;color: rgb(212, 212, 212); background-color: rgb(30, 30, 30); font-family: Consolas, &amp;quot;Courier New&amp;quot;, monospace; font-size: 14px; line-height: 19px;&quot;&gt;&lt;div style=&quot;line-height: 19px;&quot;&gt;&lt;div style=&quot;line-height: 19px;&quot;&gt;&lt;div style=&quot;line-height: 19px;&quot;&gt;&lt;div style=&quot;line-height: 19px;&quot;&gt;&lt;div style=&quot;line-height: 19px;&quot;&gt;&lt;span style=&quot;color: #9cdcfe;&quot;&gt;wss&lt;/span&gt;&lt;/div&gt;&lt;/div&gt;&lt;/div&gt;&lt;/div&gt;&lt;/div&gt;&lt;/div&gt;" style="html=1;" parent="1" vertex="1">
                    <mxGeometry x="880" y="-900" width="110" height="30" as="geometry"/>
                </mxCell>
                <mxCell id="24" style="edgeStyle=none;html=1;" parent="1" source="23" target="21" edge="1">
                    <mxGeometry relative="1" as="geometry"/>
                </mxCell>
                <mxCell id="23" value="&lt;div style=&quot;color: rgb(212, 212, 212); background-color: rgb(30, 30, 30); font-family: Consolas, &amp;quot;Courier New&amp;quot;, monospace; font-size: 14px; line-height: 19px;&quot;&gt;&lt;div style=&quot;line-height: 19px;&quot;&gt;&lt;div style=&quot;line-height: 19px;&quot;&gt;&lt;div style=&quot;line-height: 19px;&quot;&gt;&lt;div style=&quot;line-height: 19px;&quot;&gt;&lt;div style=&quot;line-height: 19px;&quot;&gt;&lt;span style=&quot;color: #dcdcaa;&quot;&gt;getPlayerOnTableByName&lt;/span&gt;&lt;/div&gt;&lt;/div&gt;&lt;/div&gt;&lt;/div&gt;&lt;/div&gt;&lt;/div&gt;" style="html=1;" parent="1" vertex="1">
                    <mxGeometry x="600" y="-745" width="210" height="35" as="geometry"/>
                </mxCell>
                <mxCell id="26" style="edgeStyle=none;html=1;" parent="1" source="25" target="21" edge="1">
                    <mxGeometry relative="1" as="geometry"/>
                </mxCell>
                <mxCell id="25" value="&lt;div style=&quot;color: rgb(212, 212, 212); background-color: rgb(30, 30, 30); font-family: Consolas, &amp;quot;Courier New&amp;quot;, monospace; font-size: 14px; line-height: 19px;&quot;&gt;&lt;div style=&quot;line-height: 19px;&quot;&gt;&lt;div style=&quot;line-height: 19px;&quot;&gt;&lt;div style=&quot;line-height: 19px;&quot;&gt;&lt;div style=&quot;line-height: 19px;&quot;&gt;&lt;div style=&quot;line-height: 19px;&quot;&gt;&lt;div style=&quot;line-height: 19px;&quot;&gt;&lt;span style=&quot;color: #dcdcaa;&quot;&gt;getPlayerById&lt;/span&gt;&lt;/div&gt;&lt;/div&gt;&lt;/div&gt;&lt;/div&gt;&lt;/div&gt;&lt;/div&gt;&lt;/div&gt;" style="html=1;" parent="1" vertex="1">
                    <mxGeometry x="1060" y="-740" width="160" height="30" as="geometry"/>
                </mxCell>
                <mxCell id="27" value="&lt;div style=&quot;color: rgb(212, 212, 212); background-color: rgb(30, 30, 30); font-family: Consolas, &amp;quot;Courier New&amp;quot;, monospace; font-size: 14px; line-height: 19px;&quot;&gt;&lt;div style=&quot;line-height: 19px;&quot;&gt;&lt;span style=&quot;color: #9cdcfe;&quot;&gt;CARD STRUCTURE&lt;/span&gt;&lt;/div&gt;&lt;/div&gt;" style="html=1;" parent="1" vertex="1">
                    <mxGeometry x="240" y="-555" width="140" height="30" as="geometry"/>
                </mxCell>
                <mxCell id="31" style="edgeStyle=none;html=1;" parent="1" source="29" target="30" edge="1">
                    <mxGeometry relative="1" as="geometry"/>
                </mxCell>
                <mxCell id="29" value="&lt;div style=&quot;color: rgb(212, 212, 212); background-color: rgb(30, 30, 30); font-family: Consolas, &amp;quot;Courier New&amp;quot;, monospace; font-size: 14px; line-height: 19px;&quot;&gt;&lt;div style=&quot;line-height: 19px;&quot;&gt;&lt;div style=&quot;line-height: 19px;&quot;&gt;&lt;div style=&quot;line-height: 19px;&quot;&gt;&lt;div style=&quot;line-height: 19px;&quot;&gt;&lt;div style=&quot;line-height: 19px;&quot;&gt;&lt;div style=&quot;line-height: 19px;&quot;&gt;&lt;div style=&quot;line-height: 19px;&quot;&gt;&lt;span style=&quot;color: #dcdcaa;&quot;&gt;getPrivateState&lt;/span&gt;&lt;/div&gt;&lt;/div&gt;&lt;/div&gt;&lt;/div&gt;&lt;/div&gt;&lt;/div&gt;&lt;/div&gt;&lt;/div&gt;" style="html=1;" parent="1" vertex="1">
                    <mxGeometry x="1890" width="160" height="30" as="geometry"/>
                </mxCell>
                <mxCell id="110" style="edgeStyle=none;html=1;" parent="1" source="30" target="56" edge="1">
                    <mxGeometry relative="1" as="geometry"/>
                </mxCell>
                <mxCell id="30" value="&lt;div style=&quot;color: rgb(212, 212, 212); background-color: rgb(30, 30, 30); font-family: Consolas, &amp;quot;Courier New&amp;quot;, monospace; font-size: 14px; line-height: 19px;&quot;&gt;&lt;div style=&quot;line-height: 19px;&quot;&gt;&lt;div style=&quot;line-height: 19px;&quot;&gt;&lt;div style=&quot;line-height: 19px;&quot;&gt;&lt;div style=&quot;line-height: 19px;&quot;&gt;&lt;div style=&quot;line-height: 19px;&quot;&gt;&lt;div style=&quot;line-height: 19px;&quot;&gt;&lt;div style=&quot;line-height: 19px;&quot;&gt;&lt;span style=&quot;color: rgb(156, 220, 254);&quot;&gt;TABLE STRUCTURE&lt;/span&gt;&lt;br&gt;&lt;/div&gt;&lt;/div&gt;&lt;/div&gt;&lt;/div&gt;&lt;/div&gt;&lt;/div&gt;&lt;/div&gt;&lt;/div&gt;" style="html=1;" parent="1" vertex="1">
                    <mxGeometry x="1630" y="-740" width="160" height="30" as="geometry"/>
                </mxCell>
                <mxCell id="33" style="edgeStyle=none;html=1;" parent="1" source="32" target="20" edge="1">
                    <mxGeometry relative="1" as="geometry"/>
                </mxCell>
                <mxCell id="34" style="edgeStyle=none;html=1;" parent="1" source="32" target="29" edge="1">
                    <mxGeometry relative="1" as="geometry"/>
                </mxCell>
                <mxCell id="32" value="&lt;div style=&quot;color: rgb(212, 212, 212); background-color: rgb(30, 30, 30); font-family: Consolas, &amp;quot;Courier New&amp;quot;, monospace; font-size: 14px; line-height: 19px;&quot;&gt;&lt;div style=&quot;line-height: 19px;&quot;&gt;&lt;div style=&quot;line-height: 19px;&quot;&gt;&lt;div style=&quot;line-height: 19px;&quot;&gt;&lt;div style=&quot;line-height: 19px;&quot;&gt;&lt;div style=&quot;line-height: 19px;&quot;&gt;&lt;div style=&quot;line-height: 19px;&quot;&gt;&lt;span style=&quot;color: #dcdcaa;&quot;&gt;broadcastNewState&lt;/span&gt;&lt;/div&gt;&lt;/div&gt;&lt;/div&gt;&lt;/div&gt;&lt;/div&gt;&lt;/div&gt;&lt;/div&gt;" style="html=1;" parent="1" vertex="1">
                    <mxGeometry x="1900" y="180" width="160" height="30" as="geometry"/>
                </mxCell>
                <mxCell id="36" style="edgeStyle=none;html=1;" parent="1" source="35" target="20" edge="1">
                    <mxGeometry relative="1" as="geometry"/>
                </mxCell>
                <mxCell id="37" style="edgeStyle=none;html=1;entryX=0.5;entryY=1;entryDx=0;entryDy=0;" parent="1" source="35" target="9" edge="1">
                    <mxGeometry relative="1" as="geometry"/>
                </mxCell>
                <mxCell id="38" style="edgeStyle=none;html=1;entryX=1;entryY=0.25;entryDx=0;entryDy=0;startArrow=none;" parent="1" source="49" target="17" edge="1">
                    <mxGeometry relative="1" as="geometry"/>
                </mxCell>
                <mxCell id="39" style="edgeStyle=none;html=1;" parent="1" source="35" target="19" edge="1">
                    <mxGeometry relative="1" as="geometry"/>
                </mxCell>
                <mxCell id="35" value="&lt;div style=&quot;color: rgb(212, 212, 212); background-color: rgb(30, 30, 30); font-family: Consolas, &amp;quot;Courier New&amp;quot;, monospace; font-size: 14px; line-height: 19px;&quot;&gt;&lt;div style=&quot;line-height: 19px;&quot;&gt;&lt;div style=&quot;line-height: 19px;&quot;&gt;&lt;div style=&quot;line-height: 19px;&quot;&gt;&lt;div style=&quot;line-height: 19px;&quot;&gt;&lt;div style=&quot;line-height: 19px;&quot;&gt;&lt;div style=&quot;line-height: 19px;&quot;&gt;&lt;span style=&quot;color: #dcdcaa;&quot;&gt;dealCards&lt;/span&gt;&lt;/div&gt;&lt;/div&gt;&lt;/div&gt;&lt;/div&gt;&lt;/div&gt;&lt;/div&gt;&lt;/div&gt;" style="html=1;" parent="1" vertex="1">
                    <mxGeometry x="940" y="170" width="160" height="30" as="geometry"/>
                </mxCell>
                <mxCell id="41" style="edgeStyle=none;html=1;" parent="1" source="40" target="27" edge="1">
                    <mxGeometry relative="1" as="geometry"/>
                </mxCell>
                <mxCell id="40" value="&lt;div style=&quot;color: rgb(212, 212, 212); background-color: rgb(30, 30, 30); font-family: Consolas, &amp;quot;Courier New&amp;quot;, monospace; font-size: 14px; line-height: 19px;&quot;&gt;&lt;div style=&quot;line-height: 19px;&quot;&gt;&lt;div style=&quot;line-height: 19px;&quot;&gt;&lt;div style=&quot;line-height: 19px;&quot;&gt;&lt;div style=&quot;line-height: 19px;&quot;&gt;&lt;div style=&quot;line-height: 19px;&quot;&gt;&lt;div style=&quot;line-height: 19px;&quot;&gt;&lt;div style=&quot;line-height: 19px;&quot;&gt;&lt;span style=&quot;color: #dcdcaa;&quot;&gt;playerHasCard&lt;/span&gt;&lt;/div&gt;&lt;/div&gt;&lt;/div&gt;&lt;/div&gt;&lt;/div&gt;&lt;/div&gt;&lt;/div&gt;&lt;/div&gt;" style="html=1;" parent="1" vertex="1">
                    <mxGeometry x="140" y="-397.5" width="160" height="30" as="geometry"/>
                </mxCell>
                <mxCell id="44" style="edgeStyle=none;html=1;" parent="1" source="43" target="30" edge="1">
                    <mxGeometry relative="1" as="geometry"/>
                </mxCell>
                <mxCell id="45" style="edgeStyle=none;html=1;" parent="1" source="43" target="27" edge="1">
                    <mxGeometry relative="1" as="geometry"/>
                </mxCell>
                <mxCell id="47" style="edgeStyle=none;html=1;" parent="1" source="43" target="40" edge="1">
                    <mxGeometry relative="1" as="geometry"/>
                </mxCell>
                <mxCell id="48" style="edgeStyle=none;html=1;" parent="1" source="43" target="25" edge="1">
                    <mxGeometry relative="1" as="geometry"/>
                </mxCell>
                <mxCell id="43" value="&lt;div style=&quot;color: rgb(212, 212, 212); background-color: rgb(30, 30, 30); font-family: Consolas, &amp;quot;Courier New&amp;quot;, monospace; font-size: 14px; line-height: 19px;&quot;&gt;&lt;div style=&quot;line-height: 19px;&quot;&gt;&lt;div style=&quot;line-height: 19px;&quot;&gt;&lt;div style=&quot;line-height: 19px;&quot;&gt;&lt;div style=&quot;line-height: 19px;&quot;&gt;&lt;div style=&quot;line-height: 19px;&quot;&gt;&lt;div style=&quot;line-height: 19px;&quot;&gt;&lt;div style=&quot;line-height: 19px;&quot;&gt;&lt;span style=&quot;color: #dcdcaa;&quot;&gt;playCards&lt;/span&gt;&lt;/div&gt;&lt;/div&gt;&lt;/div&gt;&lt;/div&gt;&lt;/div&gt;&lt;/div&gt;&lt;/div&gt;&lt;/div&gt;" style="html=1;" parent="1" vertex="1">
                    <mxGeometry x="220" y="320" width="160" height="30" as="geometry"/>
                </mxCell>
                <mxCell id="50" style="edgeStyle=none;html=1;" parent="1" source="49" target="25" edge="1">
                    <mxGeometry relative="1" as="geometry"/>
                </mxCell>
                <mxCell id="51" style="edgeStyle=none;html=1;entryX=0.75;entryY=1;entryDx=0;entryDy=0;" parent="1" source="49" target="30" edge="1">
                    <mxGeometry relative="1" as="geometry"/>
                </mxCell>
                <mxCell id="53" style="edgeStyle=none;html=1;" parent="1" source="52" target="20" edge="1">
                    <mxGeometry relative="1" as="geometry"/>
                </mxCell>
                <mxCell id="54" style="edgeStyle=none;html=1;" parent="1" source="52" target="30" edge="1">
                    <mxGeometry relative="1" as="geometry"/>
                </mxCell>
                <mxCell id="52" value="&lt;div style=&quot;color: rgb(212, 212, 212); background-color: rgb(30, 30, 30); font-family: Consolas, &amp;quot;Courier New&amp;quot;, monospace; font-size: 14px; line-height: 19px;&quot;&gt;&lt;div style=&quot;line-height: 19px;&quot;&gt;&lt;div style=&quot;line-height: 19px;&quot;&gt;&lt;div style=&quot;line-height: 19px;&quot;&gt;&lt;div style=&quot;line-height: 19px;&quot;&gt;&lt;div style=&quot;line-height: 19px;&quot;&gt;&lt;div style=&quot;line-height: 19px;&quot;&gt;&lt;div style=&quot;line-height: 19px;&quot;&gt;&lt;span style=&quot;color: #dcdcaa;&quot;&gt;PlayerNumberReached&lt;/span&gt;&lt;/div&gt;&lt;/div&gt;&lt;/div&gt;&lt;/div&gt;&lt;/div&gt;&lt;/div&gt;&lt;/div&gt;&lt;/div&gt;" style="html=1;" parent="1" vertex="1">
                    <mxGeometry x="1430" y="170" width="160" height="30" as="geometry"/>
                </mxCell>
                <mxCell id="112" style="edgeStyle=none;html=1;" parent="1" source="55" target="13" edge="1">
                    <mxGeometry relative="1" as="geometry"/>
                </mxCell>
                <mxCell id="55" value="&lt;div style=&quot;color: rgb(212, 212, 212); background-color: rgb(30, 30, 30); font-family: Consolas, &amp;quot;Courier New&amp;quot;, monospace; font-size: 14px; line-height: 19px;&quot;&gt;&lt;div style=&quot;line-height: 19px;&quot;&gt;&lt;div style=&quot;line-height: 19px;&quot;&gt;&lt;div style=&quot;line-height: 19px;&quot;&gt;&lt;div style=&quot;line-height: 19px;&quot;&gt;&lt;div style=&quot;line-height: 19px;&quot;&gt;&lt;span style=&quot;color: #9cdcfe;&quot;&gt;SOCKET STRUCTURE&lt;/span&gt;&lt;/div&gt;&lt;/div&gt;&lt;/div&gt;&lt;/div&gt;&lt;/div&gt;&lt;/div&gt;" style="html=1;" parent="1" vertex="1">
                    <mxGeometry x="2240" y="-742.5" width="180" height="30" as="geometry"/>
                </mxCell>
                <mxCell id="57" style="edgeStyle=none;html=1;" parent="1" source="56" target="55" edge="1">
                    <mxGeometry relative="1" as="geometry"/>
                </mxCell>
                <mxCell id="56" value="&lt;div style=&quot;color: rgb(212, 212, 212); background-color: rgb(30, 30, 30); font-family: Consolas, &amp;quot;Courier New&amp;quot;, monospace; font-size: 14px; line-height: 19px;&quot;&gt;&lt;div style=&quot;line-height: 19px;&quot;&gt;&lt;div style=&quot;line-height: 19px;&quot;&gt;&lt;div style=&quot;line-height: 19px;&quot;&gt;&lt;div style=&quot;line-height: 19px;&quot;&gt;&lt;div style=&quot;line-height: 19px;&quot;&gt;&lt;div style=&quot;line-height: 19px;&quot;&gt;&lt;div style=&quot;line-height: 19px;&quot;&gt;&lt;div style=&quot;line-height: 19px;&quot;&gt;&lt;span style=&quot;color: #dcdcaa;&quot;&gt;makeTable&lt;/span&gt;&lt;/div&gt;&lt;/div&gt;&lt;/div&gt;&lt;/div&gt;&lt;/div&gt;&lt;/div&gt;&lt;/div&gt;&lt;/div&gt;&lt;/div&gt;" style="html=1;" parent="1" vertex="1">
                    <mxGeometry x="1950" y="-555" width="160" height="30" as="geometry"/>
                </mxCell>
                <mxCell id="60" style="edgeStyle=none;html=1;" parent="1" source="59" target="21" edge="1">
                    <mxGeometry relative="1" as="geometry"/>
                </mxCell>
                <mxCell id="59" value="&lt;div style=&quot;color: rgb(212, 212, 212); background-color: rgb(30, 30, 30); font-family: Consolas, &amp;quot;Courier New&amp;quot;, monospace; font-size: 14px; line-height: 19px;&quot;&gt;&lt;div style=&quot;line-height: 19px;&quot;&gt;&lt;div style=&quot;line-height: 19px;&quot;&gt;&lt;div style=&quot;line-height: 19px;&quot;&gt;&lt;div style=&quot;line-height: 19px;&quot;&gt;&lt;div style=&quot;line-height: 19px;&quot;&gt;&lt;div style=&quot;line-height: 19px;&quot;&gt;&lt;div style=&quot;line-height: 19px;&quot;&gt;&lt;div style=&quot;line-height: 19px;&quot;&gt;&lt;span style=&quot;color: #dcdcaa;&quot;&gt;JoinTable&lt;/span&gt;&lt;/div&gt;&lt;/div&gt;&lt;/div&gt;&lt;/div&gt;&lt;/div&gt;&lt;/div&gt;&lt;/div&gt;&lt;/div&gt;&lt;/div&gt;" style="html=1;" parent="1" vertex="1">
                    <mxGeometry x="1250" y="-740" width="160" height="30" as="geometry"/>
                </mxCell>
                <mxCell id="62" style="edgeStyle=none;html=1;" parent="1" source="61" target="55" edge="1">
                    <mxGeometry relative="1" as="geometry"/>
                </mxCell>
                <mxCell id="63" style="edgeStyle=none;html=1;" parent="1" source="61" target="19" edge="1">
                    <mxGeometry relative="1" as="geometry"/>
                </mxCell>
                <mxCell id="61" value="&lt;div style=&quot;color: rgb(212, 212, 212); background-color: rgb(30, 30, 30); font-family: Consolas, &amp;quot;Courier New&amp;quot;, monospace; font-size: 14px; line-height: 19px;&quot;&gt;&lt;div style=&quot;line-height: 19px;&quot;&gt;&lt;div style=&quot;line-height: 19px;&quot;&gt;&lt;div style=&quot;line-height: 19px;&quot;&gt;&lt;div style=&quot;line-height: 19px;&quot;&gt;&lt;div style=&quot;line-height: 19px;&quot;&gt;&lt;div style=&quot;line-height: 19px;&quot;&gt;&lt;div style=&quot;line-height: 19px;&quot;&gt;&lt;div style=&quot;line-height: 19px;&quot;&gt;&lt;span style=&quot;color: #dcdcaa;&quot;&gt;leaveTable&lt;/span&gt;&lt;/div&gt;&lt;/div&gt;&lt;/div&gt;&lt;/div&gt;&lt;/div&gt;&lt;/div&gt;&lt;/div&gt;&lt;/div&gt;&lt;/div&gt;" style="html=1;" parent="1" vertex="1">
                    <mxGeometry x="2250" y="260" width="160" height="30" as="geometry"/>
                </mxCell>
                <mxCell id="65" style="edgeStyle=none;html=1;" parent="1" source="64" target="20" edge="1">
                    <mxGeometry relative="1" as="geometry"/>
                </mxCell>
                <mxCell id="66" style="edgeStyle=none;html=1;" parent="1" source="64" target="25" edge="1">
                    <mxGeometry relative="1" as="geometry"/>
                </mxCell>
                <mxCell id="67" style="edgeStyle=none;html=1;" parent="1" source="64" target="30" edge="1">
                    <mxGeometry relative="1" as="geometry"/>
                </mxCell>
                <mxCell id="64" value="&lt;div style=&quot;color: rgb(212, 212, 212); background-color: rgb(30, 30, 30); font-family: Consolas, &amp;quot;Courier New&amp;quot;, monospace; font-size: 14px; line-height: 19px;&quot;&gt;&lt;div style=&quot;line-height: 19px;&quot;&gt;&lt;div style=&quot;line-height: 19px;&quot;&gt;&lt;div style=&quot;line-height: 19px;&quot;&gt;&lt;div style=&quot;line-height: 19px;&quot;&gt;&lt;div style=&quot;line-height: 19px;&quot;&gt;&lt;div style=&quot;line-height: 19px;&quot;&gt;&lt;div style=&quot;line-height: 19px;&quot;&gt;&lt;div style=&quot;line-height: 19px;&quot;&gt;&lt;span style=&quot;color: #dcdcaa;&quot;&gt;determineRoles&lt;/span&gt;&lt;/div&gt;&lt;/div&gt;&lt;/div&gt;&lt;/div&gt;&lt;/div&gt;&lt;/div&gt;&lt;/div&gt;&lt;/div&gt;&lt;/div&gt;" style="html=1;" parent="1" vertex="1">
                    <mxGeometry x="1650" y="170" width="160" height="30" as="geometry"/>
                </mxCell>
                <mxCell id="69" style="edgeStyle=none;html=1;" parent="1" source="68" target="20" edge="1">
                    <mxGeometry relative="1" as="geometry"/>
                </mxCell>
                <mxCell id="71" style="edgeStyle=none;html=1;" parent="1" source="68" target="18" edge="1">
                    <mxGeometry relative="1" as="geometry"/>
                </mxCell>
                <mxCell id="73" style="edgeStyle=none;html=1;" parent="1" source="68" target="55" edge="1">
                    <mxGeometry relative="1" as="geometry"/>
                </mxCell>
                <mxCell id="78" style="edgeStyle=none;html=1;entryX=0.75;entryY=1;entryDx=0;entryDy=0;" parent="1" source="68" target="77" edge="1">
                    <mxGeometry relative="1" as="geometry"/>
                </mxCell>
                <mxCell id="68" value="&lt;div style=&quot;color: rgb(212, 212, 212); background-color: rgb(30, 30, 30); font-family: Consolas, &amp;quot;Courier New&amp;quot;, monospace; font-size: 14px; line-height: 19px;&quot;&gt;&lt;div style=&quot;line-height: 19px;&quot;&gt;&lt;div style=&quot;line-height: 19px;&quot;&gt;&lt;div style=&quot;line-height: 19px;&quot;&gt;&lt;div style=&quot;line-height: 19px;&quot;&gt;&lt;div style=&quot;line-height: 19px;&quot;&gt;&lt;div style=&quot;line-height: 19px;&quot;&gt;&lt;div style=&quot;line-height: 19px;&quot;&gt;&lt;div style=&quot;line-height: 19px;&quot;&gt;&lt;span style=&quot;color: #dcdcaa;&quot;&gt;exchangeCardsPresident&lt;/span&gt;&lt;/div&gt;&lt;div style=&quot;line-height: 19px;&quot;&gt;&lt;span style=&quot;color: #dcdcaa;&quot;&gt;/&lt;/span&gt;&lt;/div&gt;&lt;div style=&quot;line-height: 19px;&quot;&gt;&lt;div style=&quot;line-height: 19px;&quot;&gt;&lt;span style=&quot;color: #dcdcaa;&quot;&gt;exchangeCardsVice&lt;/span&gt;&lt;/div&gt;&lt;/div&gt;&lt;/div&gt;&lt;/div&gt;&lt;/div&gt;&lt;/div&gt;&lt;/div&gt;&lt;/div&gt;&lt;/div&gt;&lt;/div&gt;" style="html=1;" parent="1" vertex="1">
                    <mxGeometry x="1730" y="410" width="260" height="70" as="geometry"/>
                </mxCell>
                <mxCell id="79" style="edgeStyle=none;html=1;" parent="1" source="77" target="4" edge="1">
                    <mxGeometry relative="1" as="geometry"/>
                </mxCell>
                <mxCell id="80" style="edgeStyle=none;html=1;" parent="1" source="77" target="6" edge="1">
                    <mxGeometry relative="1" as="geometry"/>
                </mxCell>
                <mxCell id="77" value="&lt;div style=&quot;color: rgb(212, 212, 212); background-color: rgb(30, 30, 30); font-family: Consolas, &amp;quot;Courier New&amp;quot;, monospace; font-size: 14px; line-height: 19px;&quot;&gt;&lt;span style=&quot;color: #dcdcaa;&quot;&gt;compareCards&lt;/span&gt;&lt;/div&gt;" style="html=1;" parent="1" vertex="1">
                    <mxGeometry x="-180" y="-397.5" width="110" height="30" as="geometry"/>
                </mxCell>
                <mxCell id="49" value="&lt;div style=&quot;color: rgb(212, 212, 212); background-color: rgb(30, 30, 30); font-family: Consolas, &amp;quot;Courier New&amp;quot;, monospace; font-size: 14px; line-height: 19px;&quot;&gt;&lt;div style=&quot;line-height: 19px;&quot;&gt;&lt;div style=&quot;line-height: 19px;&quot;&gt;&lt;div style=&quot;line-height: 19px;&quot;&gt;&lt;div style=&quot;line-height: 19px;&quot;&gt;&lt;div style=&quot;line-height: 19px;&quot;&gt;&lt;div style=&quot;line-height: 19px;&quot;&gt;&lt;div style=&quot;line-height: 19px;&quot;&gt;&lt;span style=&quot;color: #dcdcaa;&quot;&gt;nextPlayer&lt;/span&gt;&lt;/div&gt;&lt;/div&gt;&lt;/div&gt;&lt;/div&gt;&lt;/div&gt;&lt;/div&gt;&lt;/div&gt;&lt;/div&gt;" style="html=1;" parent="1" vertex="1">
                    <mxGeometry x="1220" y="170" width="160" height="30" as="geometry"/>
                </mxCell>
                <mxCell id="s_77rysR0Z62bXio0_9l-120" style="edgeStyle=none;html=1;" parent="1" source="s_77rysR0Z62bXio0_9l-116" target="s_77rysR0Z62bXio0_9l-119" edge="1">
                    <mxGeometry relative="1" as="geometry"/>
                </mxCell>
                <mxCell id="s_77rysR0Z62bXio0_9l-125" style="edgeStyle=none;html=1;" parent="1" source="s_77rysR0Z62bXio0_9l-116" target="s_77rysR0Z62bXio0_9l-124" edge="1">
                    <mxGeometry relative="1" as="geometry"/>
                </mxCell>
                <mxCell id="s_77rysR0Z62bXio0_9l-116" value="&lt;div style=&quot;color: rgb(212, 212, 212); background-color: rgb(30, 30, 30); font-family: Consolas, &amp;quot;Courier New&amp;quot;, monospace; font-size: 14px; line-height: 19px;&quot;&gt;&lt;div style=&quot;line-height: 19px;&quot;&gt;&lt;div style=&quot;line-height: 19px;&quot;&gt;&lt;div style=&quot;line-height: 19px;&quot;&gt;&lt;div style=&quot;line-height: 19px;&quot;&gt;&lt;div style=&quot;line-height: 19px;&quot;&gt;&lt;div style=&quot;line-height: 19px;&quot;&gt;&lt;div style=&quot;line-height: 19px;&quot;&gt;&lt;span style=&quot;color: #dcdcaa;&quot;&gt;ws.on(&quot;message&quot;)&lt;/span&gt;&lt;/div&gt;&lt;/div&gt;&lt;/div&gt;&lt;/div&gt;&lt;/div&gt;&lt;/div&gt;&lt;/div&gt;&lt;/div&gt;" style="html=1;" parent="1" vertex="1">
                    <mxGeometry x="780" y="1500" width="160" height="30" as="geometry"/>
                </mxCell>
                <mxCell id="s_77rysR0Z62bXio0_9l-117" value="&lt;div style=&quot;color: rgb(212, 212, 212); background-color: rgb(30, 30, 30); font-family: Consolas, &amp;quot;Courier New&amp;quot;, monospace; font-size: 14px; line-height: 19px;&quot;&gt;&lt;div style=&quot;line-height: 19px;&quot;&gt;&lt;div style=&quot;line-height: 19px;&quot;&gt;&lt;div style=&quot;line-height: 19px;&quot;&gt;&lt;div style=&quot;line-height: 19px;&quot;&gt;&lt;div style=&quot;line-height: 19px;&quot;&gt;&lt;div style=&quot;line-height: 19px;&quot;&gt;&lt;div style=&quot;line-height: 19px;&quot;&gt;&lt;div style=&quot;line-height: 19px;&quot;&gt;&lt;span style=&quot;color: #dcdcaa;&quot;&gt;StringIsAlphaNumeric&lt;/span&gt;&lt;/div&gt;&lt;/div&gt;&lt;/div&gt;&lt;/div&gt;&lt;/div&gt;&lt;/div&gt;&lt;/div&gt;&lt;/div&gt;&lt;/div&gt;" style="html=1;" parent="1" vertex="1">
                    <mxGeometry x="340" y="650" width="160" height="30" as="geometry"/>
                </mxCell>
                <mxCell id="s_77rysR0Z62bXio0_9l-121" style="edgeStyle=none;html=1;" parent="1" source="s_77rysR0Z62bXio0_9l-119" target="s_77rysR0Z62bXio0_9l-117" edge="1">
                    <mxGeometry relative="1" as="geometry"/>
                </mxCell>
                <mxCell id="s_77rysR0Z62bXio0_9l-122" style="edgeStyle=none;html=1;entryX=0.5;entryY=1;entryDx=0;entryDy=0;" parent="1" source="s_77rysR0Z62bXio0_9l-119" target="20" edge="1">
                    <mxGeometry relative="1" as="geometry"/>
                </mxCell>
                <mxCell id="s_77rysR0Z62bXio0_9l-123" style="edgeStyle=none;html=1;entryX=0.5;entryY=1;entryDx=0;entryDy=0;" parent="1" source="s_77rysR0Z62bXio0_9l-119" target="56" edge="1">
                    <mxGeometry relative="1" as="geometry"/>
                </mxCell>
                <mxCell id="s_77rysR0Z62bXio0_9l-119" value="&lt;div style=&quot;color: rgb(212, 212, 212); background-color: rgb(30, 30, 30); font-family: Consolas, &amp;quot;Courier New&amp;quot;, monospace; font-size: 14px; line-height: 19px;&quot;&gt;&lt;div style=&quot;line-height: 19px;&quot;&gt;&lt;div style=&quot;line-height: 19px;&quot;&gt;&lt;div style=&quot;line-height: 19px;&quot;&gt;&lt;div style=&quot;line-height: 19px;&quot;&gt;&lt;div style=&quot;line-height: 19px;&quot;&gt;&lt;div style=&quot;line-height: 19px;&quot;&gt;&lt;div style=&quot;line-height: 19px;&quot;&gt;&lt;span style=&quot;color: #dcdcaa;&quot;&gt;case: createTable&lt;/span&gt;&lt;/div&gt;&lt;/div&gt;&lt;/div&gt;&lt;/div&gt;&lt;/div&gt;&lt;/div&gt;&lt;/div&gt;&lt;/div&gt;" style="html=1;" parent="1" vertex="1">
                    <mxGeometry x="550" y="790" width="160" height="30" as="geometry"/>
                </mxCell>
                <mxCell id="s_77rysR0Z62bXio0_9l-127" style="edgeStyle=none;html=1;" parent="1" source="s_77rysR0Z62bXio0_9l-124" target="s_77rysR0Z62bXio0_9l-117" edge="1">
                    <mxGeometry relative="1" as="geometry">
                        <mxPoint x="510" y="670" as="targetPoint"/>
                    </mxGeometry>
                </mxCell>
                <mxCell id="s_77rysR0Z62bXio0_9l-128" style="edgeStyle=none;html=1;" parent="1" source="s_77rysR0Z62bXio0_9l-124" target="23" edge="1">
                    <mxGeometry relative="1" as="geometry"/>
                </mxCell>
                <mxCell id="s_77rysR0Z62bXio0_9l-129" style="edgeStyle=none;html=1;entryX=0.75;entryY=1;entryDx=0;entryDy=0;" parent="1" source="s_77rysR0Z62bXio0_9l-124" target="52" edge="1">
                    <mxGeometry relative="1" as="geometry"/>
                </mxCell>
                <mxCell id="s_77rysR0Z62bXio0_9l-130" style="edgeStyle=none;html=1;entryX=0.5;entryY=1;entryDx=0;entryDy=0;" parent="1" source="s_77rysR0Z62bXio0_9l-124" target="59" edge="1">
                    <mxGeometry relative="1" as="geometry"/>
                </mxCell>
                <mxCell id="s_77rysR0Z62bXio0_9l-131" style="edgeStyle=none;html=1;entryX=0.25;entryY=1;entryDx=0;entryDy=0;" parent="1" source="s_77rysR0Z62bXio0_9l-124" target="35" edge="1">
                    <mxGeometry relative="1" as="geometry"/>
                </mxCell>
                <mxCell id="s_77rysR0Z62bXio0_9l-132" style="edgeStyle=none;html=1;entryX=0.75;entryY=1;entryDx=0;entryDy=0;" parent="1" source="s_77rysR0Z62bXio0_9l-124" target="32" edge="1">
                    <mxGeometry relative="1" as="geometry"/>
                </mxCell>
                <mxCell id="s_77rysR0Z62bXio0_9l-124" value="&lt;div style=&quot;color: rgb(212, 212, 212); background-color: rgb(30, 30, 30); font-family: Consolas, &amp;quot;Courier New&amp;quot;, monospace; font-size: 14px; line-height: 19px;&quot;&gt;&lt;div style=&quot;line-height: 19px;&quot;&gt;&lt;div style=&quot;line-height: 19px;&quot;&gt;&lt;div style=&quot;line-height: 19px;&quot;&gt;&lt;div style=&quot;line-height: 19px;&quot;&gt;&lt;div style=&quot;line-height: 19px;&quot;&gt;&lt;div style=&quot;line-height: 19px;&quot;&gt;&lt;div style=&quot;line-height: 19px;&quot;&gt;&lt;span style=&quot;color: #dcdcaa;&quot;&gt;case: joinTable&lt;/span&gt;&lt;/div&gt;&lt;/div&gt;&lt;/div&gt;&lt;/div&gt;&lt;/div&gt;&lt;/div&gt;&lt;/div&gt;&lt;/div&gt;" style="html=1;" parent="1" vertex="1">
                    <mxGeometry x="810" y="840" width="160" height="30" as="geometry"/>
                </mxCell>
            </root>
        </mxGraphModel>
    </diagram>
    <diagram name="Copy of Page-1" id="9TtMO6uyMK7zpxlVFSan">
        <mxGraphModel dx="5112" dy="4128" grid="1" gridSize="10" guides="1" tooltips="1" connect="1" arrows="1" fold="1" page="1" pageScale="1" pageWidth="850" pageHeight="1100" math="0" shadow="0">
            <root>
                <mxCell id="8e6pNccvDbE6GERuyOO8-0"/>
                <mxCell id="8e6pNccvDbE6GERuyOO8-1" parent="8e6pNccvDbE6GERuyOO8-0"/>
                <mxCell id="8e6pNccvDbE6GERuyOO8-2" value="helpers" style="shape=folder;fontStyle=1;tabWidth=110;tabHeight=30;tabPosition=left;html=1;boundedLbl=1;labelInHeader=1;container=1;collapsible=0;recursiveResize=0;movable=1;resizable=1;rotatable=1;deletable=1;editable=1;connectable=1;" parent="8e6pNccvDbE6GERuyOO8-1" vertex="1">
                    <mxGeometry x="460" y="-1040" width="340" height="260" as="geometry"/>
                </mxCell>
                <mxCell id="8e6pNccvDbE6GERuyOO8-3" value="&lt;div style=&quot;color: rgb(212, 212, 212); background-color: rgb(30, 30, 30); font-family: Consolas, &amp;quot;Courier New&amp;quot;, monospace; font-size: 14px; line-height: 19px;&quot;&gt;&lt;div style=&quot;line-height: 19px;&quot;&gt;&lt;div style=&quot;line-height: 19px;&quot;&gt;&lt;span style=&quot;color: #dcdcaa;&quot;&gt;choice&lt;/span&gt;&lt;/div&gt;&lt;/div&gt;&lt;/div&gt;" style="html=1;" parent="8e6pNccvDbE6GERuyOO8-2" vertex="1">
                    <mxGeometry x="30" y="50" width="110" height="30" as="geometry"/>
                </mxCell>
                <mxCell id="8e6pNccvDbE6GERuyOO8-4" value="&lt;div style=&quot;color: rgb(212, 212, 212); background-color: rgb(30, 30, 30); font-family: Consolas, &amp;quot;Courier New&amp;quot;, monospace; font-size: 14px; line-height: 19px;&quot;&gt;&lt;div style=&quot;line-height: 19px;&quot;&gt;&lt;div style=&quot;line-height: 19px;&quot;&gt;&lt;div style=&quot;line-height: 19px;&quot;&gt;&lt;span style=&quot;color: #dcdcaa;&quot;&gt;removeItem&lt;/span&gt;&lt;/div&gt;&lt;/div&gt;&lt;/div&gt;&lt;/div&gt;" style="html=1;" parent="8e6pNccvDbE6GERuyOO8-2" vertex="1">
                    <mxGeometry x="30" y="100" width="110" height="30" as="geometry"/>
                </mxCell>
                <mxCell id="8e6pNccvDbE6GERuyOO8-5" value="&lt;div style=&quot;color: rgb(212, 212, 212); background-color: rgb(30, 30, 30); font-family: Consolas, &amp;quot;Courier New&amp;quot;, monospace; font-size: 14px; line-height: 19px;&quot;&gt;&lt;div style=&quot;line-height: 19px;&quot;&gt;&lt;div style=&quot;line-height: 19px;&quot;&gt;&lt;div style=&quot;line-height: 19px;&quot;&gt;&lt;div style=&quot;line-height: 19px;&quot;&gt;&lt;span style=&quot;color: #dcdcaa;&quot;&gt;StringIsAlphaNumeric&lt;/span&gt;&lt;/div&gt;&lt;/div&gt;&lt;/div&gt;&lt;/div&gt;&lt;/div&gt;" style="html=1;" parent="8e6pNccvDbE6GERuyOO8-2" vertex="1">
                    <mxGeometry x="150" y="150" width="170" height="30" as="geometry"/>
                </mxCell>
                <mxCell id="8e6pNccvDbE6GERuyOO8-36" style="edgeStyle=none;html=1;entryX=0.5;entryY=1;entryDx=0;entryDy=0;" parent="8e6pNccvDbE6GERuyOO8-1" source="8e6pNccvDbE6GERuyOO8-39" target="8e6pNccvDbE6GERuyOO8-12" edge="1">
                    <mxGeometry relative="1" as="geometry"/>
                </mxCell>
                <mxCell id="8e6pNccvDbE6GERuyOO8-37" style="edgeStyle=none;html=1;entryX=1;entryY=0.25;entryDx=0;entryDy=0;startArrow=none;" parent="8e6pNccvDbE6GERuyOO8-1" source="8e6pNccvDbE6GERuyOO8-73" target="8e6pNccvDbE6GERuyOO8-3" edge="1">
                    <mxGeometry relative="1" as="geometry"/>
                </mxCell>
                <mxCell id="8e6pNccvDbE6GERuyOO8-38" style="edgeStyle=none;html=1;" parent="8e6pNccvDbE6GERuyOO8-1" source="8e6pNccvDbE6GERuyOO8-39" target="8e6pNccvDbE6GERuyOO8-4" edge="1">
                    <mxGeometry relative="1" as="geometry"/>
                </mxCell>
                <mxCell id="8e6pNccvDbE6GERuyOO8-43" style="edgeStyle=none;html=1;" parent="8e6pNccvDbE6GERuyOO8-1" source="8e6pNccvDbE6GERuyOO8-46" target="8e6pNccvDbE6GERuyOO8-27" edge="1">
                    <mxGeometry relative="1" as="geometry"/>
                </mxCell>
                <mxCell id="8e6pNccvDbE6GERuyOO8-59" style="edgeStyle=none;html=1;" parent="8e6pNccvDbE6GERuyOO8-1" source="8e6pNccvDbE6GERuyOO8-60" target="8e6pNccvDbE6GERuyOO8-4" edge="1">
                    <mxGeometry relative="1" as="geometry"/>
                </mxCell>
                <mxCell id="8e6pNccvDbE6GERuyOO8-65" style="edgeStyle=none;html=1;" parent="8e6pNccvDbE6GERuyOO8-1" source="8e6pNccvDbE6GERuyOO8-69" target="8e6pNccvDbE6GERuyOO8-21" edge="1">
                    <mxGeometry relative="1" as="geometry"/>
                </mxCell>
                <mxCell id="8e6pNccvDbE6GERuyOO8-66" style="edgeStyle=none;html=1;" parent="8e6pNccvDbE6GERuyOO8-1" source="8e6pNccvDbE6GERuyOO8-69" target="8e6pNccvDbE6GERuyOO8-19" edge="1">
                    <mxGeometry relative="1" as="geometry"/>
                </mxCell>
                <mxCell id="8e6pNccvDbE6GERuyOO8-68" style="edgeStyle=none;html=1;entryX=0.75;entryY=1;entryDx=0;entryDy=0;" parent="8e6pNccvDbE6GERuyOO8-1" source="8e6pNccvDbE6GERuyOO8-69" target="8e6pNccvDbE6GERuyOO8-72" edge="1">
                    <mxGeometry relative="1" as="geometry"/>
                </mxCell>
                <mxCell id="8e6pNccvDbE6GERuyOO8-74" style="edgeStyle=none;html=1;" parent="8e6pNccvDbE6GERuyOO8-1" source="8e6pNccvDbE6GERuyOO8-76" target="8e6pNccvDbE6GERuyOO8-81" edge="1">
                    <mxGeometry relative="1" as="geometry"/>
                </mxCell>
                <mxCell id="8e6pNccvDbE6GERuyOO8-75" style="edgeStyle=none;html=1;" parent="8e6pNccvDbE6GERuyOO8-1" source="8e6pNccvDbE6GERuyOO8-76" target="8e6pNccvDbE6GERuyOO8-88" edge="1">
                    <mxGeometry relative="1" as="geometry"/>
                </mxCell>
                <mxCell id="d-V_iymDTbtb4yCQC2UG-3" style="edgeStyle=none;html=1;" parent="8e6pNccvDbE6GERuyOO8-1" source="8e6pNccvDbE6GERuyOO8-76" target="d-V_iymDTbtb4yCQC2UG-2" edge="1">
                    <mxGeometry relative="1" as="geometry"/>
                </mxCell>
                <mxCell id="8e6pNccvDbE6GERuyOO8-76" value="&lt;div style=&quot;color: rgb(212, 212, 212); background-color: rgb(30, 30, 30); font-family: Consolas, &amp;quot;Courier New&amp;quot;, monospace; font-size: 14px; line-height: 19px;&quot;&gt;&lt;div style=&quot;line-height: 19px;&quot;&gt;&lt;div style=&quot;line-height: 19px;&quot;&gt;&lt;div style=&quot;line-height: 19px;&quot;&gt;&lt;div style=&quot;line-height: 19px;&quot;&gt;&lt;div style=&quot;line-height: 19px;&quot;&gt;&lt;div style=&quot;line-height: 19px;&quot;&gt;&lt;div style=&quot;line-height: 19px;&quot;&gt;&lt;span style=&quot;color: #dcdcaa;&quot;&gt;ws.on(&quot;message&quot;)&lt;/span&gt;&lt;/div&gt;&lt;/div&gt;&lt;/div&gt;&lt;/div&gt;&lt;/div&gt;&lt;/div&gt;&lt;/div&gt;&lt;/div&gt;" style="html=1;" parent="8e6pNccvDbE6GERuyOO8-1" vertex="1">
                    <mxGeometry x="760" y="880" width="160" height="30" as="geometry"/>
                </mxCell>
                <mxCell id="8e6pNccvDbE6GERuyOO8-77" value="&lt;div style=&quot;color: rgb(212, 212, 212); background-color: rgb(30, 30, 30); font-family: Consolas, &amp;quot;Courier New&amp;quot;, monospace; font-size: 14px; line-height: 19px;&quot;&gt;&lt;div style=&quot;line-height: 19px;&quot;&gt;&lt;div style=&quot;line-height: 19px;&quot;&gt;&lt;div style=&quot;line-height: 19px;&quot;&gt;&lt;div style=&quot;line-height: 19px;&quot;&gt;&lt;div style=&quot;line-height: 19px;&quot;&gt;&lt;div style=&quot;line-height: 19px;&quot;&gt;&lt;div style=&quot;line-height: 19px;&quot;&gt;&lt;div style=&quot;line-height: 19px;&quot;&gt;&lt;span style=&quot;color: #dcdcaa;&quot;&gt;StringIsAlphaNumeric&lt;/span&gt;&lt;/div&gt;&lt;/div&gt;&lt;/div&gt;&lt;/div&gt;&lt;/div&gt;&lt;/div&gt;&lt;/div&gt;&lt;/div&gt;&lt;/div&gt;" style="html=1;" parent="8e6pNccvDbE6GERuyOO8-1" vertex="1">
                    <mxGeometry x="20" y="500" width="160" height="30" as="geometry"/>
                </mxCell>
                <mxCell id="8e6pNccvDbE6GERuyOO8-78" style="edgeStyle=none;html=1;" parent="8e6pNccvDbE6GERuyOO8-1" source="8e6pNccvDbE6GERuyOO8-81" target="8e6pNccvDbE6GERuyOO8-77" edge="1">
                    <mxGeometry relative="1" as="geometry"/>
                </mxCell>
                <mxCell id="8e6pNccvDbE6GERuyOO8-79" style="edgeStyle=none;html=1;entryX=0.5;entryY=1;entryDx=0;entryDy=0;" parent="8e6pNccvDbE6GERuyOO8-1" source="8e6pNccvDbE6GERuyOO8-81" target="8e6pNccvDbE6GERuyOO8-21" edge="1">
                    <mxGeometry relative="1" as="geometry"/>
                </mxCell>
                <mxCell id="8e6pNccvDbE6GERuyOO8-80" style="edgeStyle=none;html=1;entryX=0.5;entryY=1;entryDx=0;entryDy=0;" parent="8e6pNccvDbE6GERuyOO8-1" source="8e6pNccvDbE6GERuyOO8-81" target="8e6pNccvDbE6GERuyOO8-55" edge="1">
                    <mxGeometry relative="1" as="geometry"/>
                </mxCell>
                <mxCell id="8e6pNccvDbE6GERuyOO8-81" value="&lt;div style=&quot;color: rgb(212, 212, 212); background-color: rgb(30, 30, 30); font-family: Consolas, &amp;quot;Courier New&amp;quot;, monospace; font-size: 14px; line-height: 19px;&quot;&gt;&lt;div style=&quot;line-height: 19px;&quot;&gt;&lt;div style=&quot;line-height: 19px;&quot;&gt;&lt;div style=&quot;line-height: 19px;&quot;&gt;&lt;div style=&quot;line-height: 19px;&quot;&gt;&lt;div style=&quot;line-height: 19px;&quot;&gt;&lt;div style=&quot;line-height: 19px;&quot;&gt;&lt;div style=&quot;line-height: 19px;&quot;&gt;&lt;span style=&quot;color: #dcdcaa;&quot;&gt;case: createTable&lt;/span&gt;&lt;/div&gt;&lt;/div&gt;&lt;/div&gt;&lt;/div&gt;&lt;/div&gt;&lt;/div&gt;&lt;/div&gt;&lt;/div&gt;" style="html=1;" parent="8e6pNccvDbE6GERuyOO8-1" vertex="1">
                    <mxGeometry x="390" y="760" width="160" height="30" as="geometry"/>
                </mxCell>
                <mxCell id="8e6pNccvDbE6GERuyOO8-82" style="edgeStyle=none;html=1;" parent="8e6pNccvDbE6GERuyOO8-1" source="8e6pNccvDbE6GERuyOO8-88" target="8e6pNccvDbE6GERuyOO8-77" edge="1">
                    <mxGeometry relative="1" as="geometry">
                        <mxPoint x="490" y="440" as="targetPoint"/>
                    </mxGeometry>
                </mxCell>
                <mxCell id="8e6pNccvDbE6GERuyOO8-83" style="edgeStyle=none;html=1;startArrow=none;" parent="8e6pNccvDbE6GERuyOO8-1" source="ypSkSioEh0wNaaCchAUt-0" target="8e6pNccvDbE6GERuyOO8-24" edge="1">
                    <mxGeometry relative="1" as="geometry"/>
                </mxCell>
                <mxCell id="8e6pNccvDbE6GERuyOO8-84" style="edgeStyle=none;html=1;entryX=0.75;entryY=1;entryDx=0;entryDy=0;" parent="8e6pNccvDbE6GERuyOO8-1" source="8e6pNccvDbE6GERuyOO8-88" target="8e6pNccvDbE6GERuyOO8-51" edge="1">
                    <mxGeometry relative="1" as="geometry"/>
                </mxCell>
                <mxCell id="8e6pNccvDbE6GERuyOO8-85" style="edgeStyle=none;html=1;entryX=0.5;entryY=1;entryDx=0;entryDy=0;" parent="8e6pNccvDbE6GERuyOO8-1" source="8e6pNccvDbE6GERuyOO8-88" target="8e6pNccvDbE6GERuyOO8-57" edge="1">
                    <mxGeometry relative="1" as="geometry"/>
                </mxCell>
                <mxCell id="8e6pNccvDbE6GERuyOO8-86" style="edgeStyle=none;html=1;entryX=0.25;entryY=1;entryDx=0;entryDy=0;" parent="8e6pNccvDbE6GERuyOO8-1" source="8e6pNccvDbE6GERuyOO8-88" target="8e6pNccvDbE6GERuyOO8-39" edge="1">
                    <mxGeometry relative="1" as="geometry"/>
                </mxCell>
                <mxCell id="8e6pNccvDbE6GERuyOO8-87" style="edgeStyle=none;html=1;entryX=0.75;entryY=1;entryDx=0;entryDy=0;" parent="8e6pNccvDbE6GERuyOO8-1" source="8e6pNccvDbE6GERuyOO8-88" target="8e6pNccvDbE6GERuyOO8-34" edge="1">
                    <mxGeometry relative="1" as="geometry"/>
                </mxCell>
                <mxCell id="8e6pNccvDbE6GERuyOO8-88" value="&lt;div style=&quot;color: rgb(212, 212, 212); background-color: rgb(30, 30, 30); font-family: Consolas, &amp;quot;Courier New&amp;quot;, monospace; font-size: 14px; line-height: 19px;&quot;&gt;&lt;div style=&quot;line-height: 19px;&quot;&gt;&lt;div style=&quot;line-height: 19px;&quot;&gt;&lt;div style=&quot;line-height: 19px;&quot;&gt;&lt;div style=&quot;line-height: 19px;&quot;&gt;&lt;div style=&quot;line-height: 19px;&quot;&gt;&lt;div style=&quot;line-height: 19px;&quot;&gt;&lt;div style=&quot;line-height: 19px;&quot;&gt;&lt;span style=&quot;color: #dcdcaa;&quot;&gt;case: joinTable&lt;/span&gt;&lt;/div&gt;&lt;/div&gt;&lt;/div&gt;&lt;/div&gt;&lt;/div&gt;&lt;/div&gt;&lt;/div&gt;&lt;/div&gt;" style="html=1;" parent="8e6pNccvDbE6GERuyOO8-1" vertex="1">
                    <mxGeometry x="500" y="620" width="160" height="30" as="geometry"/>
                </mxCell>
                <mxCell id="ypSkSioEh0wNaaCchAUt-11" value="Cards" style="shape=folder;fontStyle=1;tabWidth=110;tabHeight=30;tabPosition=left;html=1;boundedLbl=1;labelInHeader=1;container=1;collapsible=0;recursiveResize=0;fillStyle=auto;strokeWidth=1;perimeterSpacing=0;opacity=70;" parent="8e6pNccvDbE6GERuyOO8-1" vertex="1">
                    <mxGeometry x="1330" y="-960" width="910" height="320" as="geometry"/>
                </mxCell>
                <mxCell id="8e6pNccvDbE6GERuyOO8-7" value="&lt;div style=&quot;color: rgb(212, 212, 212); background-color: rgb(30, 30, 30); font-family: Consolas, &amp;quot;Courier New&amp;quot;, monospace; font-size: 14px; line-height: 19px;&quot;&gt;&lt;div style=&quot;line-height: 19px;&quot;&gt;&lt;span style=&quot;color: #9cdcfe;&quot;&gt;cardColors&lt;/span&gt;&lt;/div&gt;&lt;/div&gt;" style="html=1;" parent="ypSkSioEh0wNaaCchAUt-11" vertex="1">
                    <mxGeometry x="220" y="81.25" width="110" height="30" as="geometry"/>
                </mxCell>
                <mxCell id="8e6pNccvDbE6GERuyOO8-8" value="&lt;div style=&quot;color: rgb(212, 212, 212); background-color: rgb(30, 30, 30); font-family: Consolas, &amp;quot;Courier New&amp;quot;, monospace; font-size: 14px; line-height: 19px;&quot;&gt;&lt;div style=&quot;line-height: 19px;&quot;&gt;&lt;span style=&quot;color: #9cdcfe;&quot;&gt;cardValues&lt;/span&gt;&lt;/div&gt;&lt;/div&gt;" style="html=1;" parent="ypSkSioEh0wNaaCchAUt-11" vertex="1">
                    <mxGeometry x="420" y="81.25" width="110" height="30" as="geometry"/>
                </mxCell>
                <mxCell id="8e6pNccvDbE6GERuyOO8-9" style="edgeStyle=none;html=1;entryX=0.5;entryY=1;entryDx=0;entryDy=0;" parent="ypSkSioEh0wNaaCchAUt-11" source="8e6pNccvDbE6GERuyOO8-12" target="8e6pNccvDbE6GERuyOO8-8" edge="1">
                    <mxGeometry relative="1" as="geometry"/>
                </mxCell>
                <mxCell id="8e6pNccvDbE6GERuyOO8-10" style="edgeStyle=none;html=1;" parent="ypSkSioEh0wNaaCchAUt-11" source="8e6pNccvDbE6GERuyOO8-12" target="8e6pNccvDbE6GERuyOO8-7" edge="1">
                    <mxGeometry relative="1" as="geometry"/>
                </mxCell>
                <mxCell id="8e6pNccvDbE6GERuyOO8-12" value="&lt;div style=&quot;color: rgb(212, 212, 212); background-color: rgb(30, 30, 30); font-family: Consolas, &amp;quot;Courier New&amp;quot;, monospace; font-size: 14px; line-height: 19px;&quot;&gt;&lt;div style=&quot;line-height: 19px;&quot;&gt;&lt;div style=&quot;line-height: 19px;&quot;&gt;&lt;span style=&quot;color: #9cdcfe;&quot;&gt;cardDeck&lt;/span&gt;&lt;/div&gt;&lt;/div&gt;&lt;/div&gt;" style="html=1;" parent="ypSkSioEh0wNaaCchAUt-11" vertex="1">
                    <mxGeometry x="680" y="238.75" width="110" height="30" as="geometry"/>
                </mxCell>
                <mxCell id="8e6pNccvDbE6GERuyOO8-19" value="&lt;div style=&quot;color: rgb(212, 212, 212); background-color: rgb(30, 30, 30); font-family: Consolas, &amp;quot;Courier New&amp;quot;, monospace; font-size: 14px; line-height: 19px;&quot;&gt;&lt;div style=&quot;line-height: 19px;&quot;&gt;&lt;div style=&quot;line-height: 19px;&quot;&gt;&lt;span style=&quot;color: #dcdcaa;&quot;&gt;removeCard&lt;/span&gt;&lt;/div&gt;&lt;/div&gt;&lt;/div&gt;" style="html=1;" parent="ypSkSioEh0wNaaCchAUt-11" vertex="1">
                    <mxGeometry x="360" y="238.75" width="110" height="30" as="geometry"/>
                </mxCell>
                <mxCell id="8e6pNccvDbE6GERuyOO8-27" value="&lt;div style=&quot;color: rgb(212, 212, 212); background-color: rgb(30, 30, 30); font-family: Consolas, &amp;quot;Courier New&amp;quot;, monospace; font-size: 14px; line-height: 19px;&quot;&gt;&lt;div style=&quot;line-height: 19px;&quot;&gt;&lt;span style=&quot;color: #9cdcfe;&quot;&gt;CARD STRUCTURE&lt;/span&gt;&lt;/div&gt;&lt;/div&gt;" style="html=1;" parent="ypSkSioEh0wNaaCchAUt-11" vertex="1">
                    <mxGeometry x="590" y="81.25" width="140" height="30" as="geometry"/>
                </mxCell>
                <mxCell id="8e6pNccvDbE6GERuyOO8-11" style="edgeStyle=none;html=1;" parent="ypSkSioEh0wNaaCchAUt-11" source="8e6pNccvDbE6GERuyOO8-12" target="8e6pNccvDbE6GERuyOO8-27" edge="1">
                    <mxGeometry relative="1" as="geometry"/>
                </mxCell>
                <mxCell id="8e6pNccvDbE6GERuyOO8-18" style="edgeStyle=none;html=1;" parent="ypSkSioEh0wNaaCchAUt-11" source="8e6pNccvDbE6GERuyOO8-19" target="8e6pNccvDbE6GERuyOO8-27" edge="1">
                    <mxGeometry relative="1" as="geometry"/>
                </mxCell>
                <mxCell id="8e6pNccvDbE6GERuyOO8-70" style="edgeStyle=none;html=1;" parent="ypSkSioEh0wNaaCchAUt-11" source="8e6pNccvDbE6GERuyOO8-72" target="8e6pNccvDbE6GERuyOO8-7" edge="1">
                    <mxGeometry relative="1" as="geometry"/>
                </mxCell>
                <mxCell id="8e6pNccvDbE6GERuyOO8-71" style="edgeStyle=none;html=1;" parent="ypSkSioEh0wNaaCchAUt-11" source="8e6pNccvDbE6GERuyOO8-72" target="8e6pNccvDbE6GERuyOO8-8" edge="1">
                    <mxGeometry relative="1" as="geometry"/>
                </mxCell>
                <mxCell id="8e6pNccvDbE6GERuyOO8-72" value="&lt;div style=&quot;color: rgb(212, 212, 212); background-color: rgb(30, 30, 30); font-family: Consolas, &amp;quot;Courier New&amp;quot;, monospace; font-size: 14px; line-height: 19px;&quot;&gt;&lt;span style=&quot;color: #dcdcaa;&quot;&gt;compareCards&lt;/span&gt;&lt;/div&gt;" style="html=1;" parent="ypSkSioEh0wNaaCchAUt-11" vertex="1">
                    <mxGeometry x="210" y="238.75" width="110" height="30" as="geometry"/>
                </mxCell>
                <mxCell id="8e6pNccvDbE6GERuyOO8-6" value="&lt;div style=&quot;color: rgb(212, 212, 212); background-color: rgb(30, 30, 30); font-family: Consolas, &amp;quot;Courier New&amp;quot;, monospace; font-size: 14px; line-height: 19px;&quot;&gt;&lt;div style=&quot;line-height: 19px;&quot;&gt;&lt;div style=&quot;line-height: 19px;&quot;&gt;&lt;div style=&quot;line-height: 19px;&quot;&gt;&lt;span style=&quot;color: #dcdcaa;&quot;&gt;isCard&lt;/span&gt;&lt;/div&gt;&lt;/div&gt;&lt;/div&gt;&lt;/div&gt;" style="html=1;" parent="ypSkSioEh0wNaaCchAUt-11" vertex="1">
                    <mxGeometry x="40" y="238.75" width="110" height="30" as="geometry"/>
                </mxCell>
                <mxCell id="ypSkSioEh0wNaaCchAUt-52" value="Package1" style="shape=folder;fontStyle=1;tabWidth=110;tabHeight=30;tabPosition=left;html=1;boundedLbl=1;labelInHeader=1;container=1;collapsible=0;recursiveResize=0;fillStyle=auto;strokeWidth=1;perimeterSpacing=0;opacity=70;" parent="8e6pNccvDbE6GERuyOO8-1" vertex="1">
                    <mxGeometry x="1150" y="-150" width="795" height="380" as="geometry"/>
                </mxCell>
                <mxCell id="ypSkSioEh0wNaaCchAUt-62" style="edgeStyle=none;html=1;" parent="ypSkSioEh0wNaaCchAUt-52" edge="1">
                    <mxGeometry relative="1" as="geometry">
                        <mxPoint x="270" y="267.2857142857147" as="sourcePoint"/>
                    </mxGeometry>
                </mxCell>
                <mxCell id="ypSkSioEh0wNaaCchAUt-63" style="edgeStyle=none;html=1;entryX=0.75;entryY=1;entryDx=0;entryDy=0;" parent="ypSkSioEh0wNaaCchAUt-52" edge="1">
                    <mxGeometry relative="1" as="geometry">
                        <mxPoint x="580" y="290" as="targetPoint"/>
                    </mxGeometry>
                </mxCell>
                <mxCell id="ypSkSioEh0wNaaCchAUt-64" style="edgeStyle=none;html=1;" parent="ypSkSioEh0wNaaCchAUt-52" edge="1">
                    <mxGeometry relative="1" as="geometry">
                        <mxPoint x="595.5" y="260" as="targetPoint"/>
                    </mxGeometry>
                </mxCell>
                <mxCell id="ypSkSioEh0wNaaCchAUt-65" style="edgeStyle=none;html=1;" parent="ypSkSioEh0wNaaCchAUt-52" edge="1">
                    <mxGeometry relative="1" as="geometry">
                        <mxPoint x="620" y="263.2857142857142" as="targetPoint"/>
                    </mxGeometry>
                </mxCell>
                <mxCell id="8e6pNccvDbE6GERuyOO8-60" value="&lt;div style=&quot;color: rgb(212, 212, 212); background-color: rgb(30, 30, 30); font-family: Consolas, &amp;quot;Courier New&amp;quot;, monospace; font-size: 14px; line-height: 19px;&quot;&gt;&lt;div style=&quot;line-height: 19px;&quot;&gt;&lt;div style=&quot;line-height: 19px;&quot;&gt;&lt;div style=&quot;line-height: 19px;&quot;&gt;&lt;div style=&quot;line-height: 19px;&quot;&gt;&lt;div style=&quot;line-height: 19px;&quot;&gt;&lt;div style=&quot;line-height: 19px;&quot;&gt;&lt;div style=&quot;line-height: 19px;&quot;&gt;&lt;div style=&quot;line-height: 19px;&quot;&gt;&lt;span style=&quot;color: #dcdcaa;&quot;&gt;leaveTable&lt;/span&gt;&lt;/div&gt;&lt;/div&gt;&lt;/div&gt;&lt;/div&gt;&lt;/div&gt;&lt;/div&gt;&lt;/div&gt;&lt;/div&gt;&lt;/div&gt;" style="html=1;" parent="ypSkSioEh0wNaaCchAUt-52" vertex="1">
                    <mxGeometry x="520" y="280" width="160" height="30" as="geometry"/>
                </mxCell>
                <mxCell id="8e6pNccvDbE6GERuyOO8-53" value="&lt;div style=&quot;color: rgb(212, 212, 212); background-color: rgb(30, 30, 30); font-family: Consolas, &amp;quot;Courier New&amp;quot;, monospace; font-size: 14px; line-height: 19px;&quot;&gt;&lt;div style=&quot;line-height: 19px;&quot;&gt;&lt;div style=&quot;line-height: 19px;&quot;&gt;&lt;div style=&quot;line-height: 19px;&quot;&gt;&lt;div style=&quot;line-height: 19px;&quot;&gt;&lt;div style=&quot;line-height: 19px;&quot;&gt;&lt;span style=&quot;color: #9cdcfe;&quot;&gt;SOCKET STRUCTURE&lt;/span&gt;&lt;/div&gt;&lt;/div&gt;&lt;/div&gt;&lt;/div&gt;&lt;/div&gt;&lt;/div&gt;" style="html=1;" parent="ypSkSioEh0wNaaCchAUt-52" vertex="1">
                    <mxGeometry x="330" y="150" width="180" height="30" as="geometry"/>
                </mxCell>
                <mxCell id="8e6pNccvDbE6GERuyOO8-58" style="edgeStyle=none;html=1;" parent="ypSkSioEh0wNaaCchAUt-52" source="8e6pNccvDbE6GERuyOO8-60" target="8e6pNccvDbE6GERuyOO8-53" edge="1">
                    <mxGeometry relative="1" as="geometry"/>
                </mxCell>
                <mxCell id="8e6pNccvDbE6GERuyOO8-69" value="&lt;div style=&quot;color: rgb(212, 212, 212); background-color: rgb(30, 30, 30); font-family: Consolas, &amp;quot;Courier New&amp;quot;, monospace; font-size: 14px; line-height: 19px;&quot;&gt;&lt;div style=&quot;line-height: 19px;&quot;&gt;&lt;div style=&quot;line-height: 19px;&quot;&gt;&lt;div style=&quot;line-height: 19px;&quot;&gt;&lt;div style=&quot;line-height: 19px;&quot;&gt;&lt;div style=&quot;line-height: 19px;&quot;&gt;&lt;div style=&quot;line-height: 19px;&quot;&gt;&lt;div style=&quot;line-height: 19px;&quot;&gt;&lt;div style=&quot;line-height: 19px;&quot;&gt;&lt;span style=&quot;color: #dcdcaa;&quot;&gt;exchangeCardsPresident&lt;/span&gt;&lt;/div&gt;&lt;div style=&quot;line-height: 19px;&quot;&gt;&lt;span style=&quot;color: #dcdcaa;&quot;&gt;/&lt;/span&gt;&lt;/div&gt;&lt;div style=&quot;line-height: 19px;&quot;&gt;&lt;div style=&quot;line-height: 19px;&quot;&gt;&lt;span style=&quot;color: #dcdcaa;&quot;&gt;exchangeCardsVice&lt;/span&gt;&lt;/div&gt;&lt;/div&gt;&lt;/div&gt;&lt;/div&gt;&lt;/div&gt;&lt;/div&gt;&lt;/div&gt;&lt;/div&gt;&lt;/div&gt;&lt;/div&gt;" style="html=1;" parent="ypSkSioEh0wNaaCchAUt-52" vertex="1">
                    <mxGeometry x="160" y="290" width="260" height="70" as="geometry"/>
                </mxCell>
                <mxCell id="8e6pNccvDbE6GERuyOO8-67" style="edgeStyle=none;html=1;" parent="ypSkSioEh0wNaaCchAUt-52" source="8e6pNccvDbE6GERuyOO8-69" target="8e6pNccvDbE6GERuyOO8-53" edge="1">
                    <mxGeometry relative="1" as="geometry"/>
                </mxCell>
                <mxCell id="8e6pNccvDbE6GERuyOO8-46" value="&lt;div style=&quot;color: rgb(212, 212, 212); background-color: rgb(30, 30, 30); font-family: Consolas, &amp;quot;Courier New&amp;quot;, monospace; font-size: 14px; line-height: 19px;&quot;&gt;&lt;div style=&quot;line-height: 19px;&quot;&gt;&lt;div style=&quot;line-height: 19px;&quot;&gt;&lt;div style=&quot;line-height: 19px;&quot;&gt;&lt;div style=&quot;line-height: 19px;&quot;&gt;&lt;div style=&quot;line-height: 19px;&quot;&gt;&lt;div style=&quot;line-height: 19px;&quot;&gt;&lt;div style=&quot;line-height: 19px;&quot;&gt;&lt;span style=&quot;color: #dcdcaa;&quot;&gt;playCards&lt;/span&gt;&lt;/div&gt;&lt;/div&gt;&lt;/div&gt;&lt;/div&gt;&lt;/div&gt;&lt;/div&gt;&lt;/div&gt;&lt;/div&gt;" style="html=1;" parent="ypSkSioEh0wNaaCchAUt-52" vertex="1">
                    <mxGeometry x="55" y="80" width="160" height="30" as="geometry"/>
                </mxCell>
                <mxCell id="8e6pNccvDbE6GERuyOO8-41" value="&lt;div style=&quot;color: rgb(212, 212, 212); background-color: rgb(30, 30, 30); font-family: Consolas, &amp;quot;Courier New&amp;quot;, monospace; font-size: 14px; line-height: 19px;&quot;&gt;&lt;div style=&quot;line-height: 19px;&quot;&gt;&lt;div style=&quot;line-height: 19px;&quot;&gt;&lt;div style=&quot;line-height: 19px;&quot;&gt;&lt;div style=&quot;line-height: 19px;&quot;&gt;&lt;div style=&quot;line-height: 19px;&quot;&gt;&lt;div style=&quot;line-height: 19px;&quot;&gt;&lt;div style=&quot;line-height: 19px;&quot;&gt;&lt;span style=&quot;color: #dcdcaa;&quot;&gt;playerHasCard&lt;/span&gt;&lt;/div&gt;&lt;/div&gt;&lt;/div&gt;&lt;/div&gt;&lt;/div&gt;&lt;/div&gt;&lt;/div&gt;&lt;/div&gt;" style="html=1;" parent="ypSkSioEh0wNaaCchAUt-52" vertex="1">
                    <mxGeometry x="50" y="190" width="160" height="30" as="geometry"/>
                </mxCell>
                <mxCell id="8e6pNccvDbE6GERuyOO8-44" style="edgeStyle=none;html=1;" parent="ypSkSioEh0wNaaCchAUt-52" source="8e6pNccvDbE6GERuyOO8-46" target="8e6pNccvDbE6GERuyOO8-41" edge="1">
                    <mxGeometry relative="1" as="geometry"/>
                </mxCell>
                <mxCell id="ypSkSioEh0wNaaCchAUt-67" value="Package1" style="shape=folder;fontStyle=1;tabWidth=110;tabHeight=30;tabPosition=left;html=1;boundedLbl=1;labelInHeader=1;container=1;collapsible=0;recursiveResize=0;fillStyle=auto;strokeWidth=1;perimeterSpacing=0;opacity=70;" parent="8e6pNccvDbE6GERuyOO8-1" vertex="1">
                    <mxGeometry x="-1020" y="-970" width="770" height="240" as="geometry"/>
                </mxCell>
                <mxCell id="ypSkSioEh0wNaaCchAUt-68" style="edgeStyle=none;html=1;" parent="ypSkSioEh0wNaaCchAUt-67" edge="1">
                    <mxGeometry relative="1" as="geometry">
                        <mxPoint x="270" y="267.2857142857147" as="sourcePoint"/>
                    </mxGeometry>
                </mxCell>
                <mxCell id="ypSkSioEh0wNaaCchAUt-69" style="edgeStyle=none;html=1;entryX=0.75;entryY=1;entryDx=0;entryDy=0;" parent="ypSkSioEh0wNaaCchAUt-67" edge="1">
                    <mxGeometry relative="1" as="geometry">
                        <mxPoint x="580" y="290" as="targetPoint"/>
                    </mxGeometry>
                </mxCell>
                <mxCell id="ypSkSioEh0wNaaCchAUt-70" style="edgeStyle=none;html=1;" parent="ypSkSioEh0wNaaCchAUt-67" edge="1">
                    <mxGeometry relative="1" as="geometry">
                        <mxPoint x="595.5" y="260" as="targetPoint"/>
                    </mxGeometry>
                </mxCell>
                <mxCell id="ypSkSioEh0wNaaCchAUt-71" style="edgeStyle=none;html=1;" parent="ypSkSioEh0wNaaCchAUt-67" edge="1">
                    <mxGeometry relative="1" as="geometry">
                        <mxPoint x="620" y="263.2857142857142" as="targetPoint"/>
                    </mxGeometry>
                </mxCell>
                <mxCell id="ypSkSioEh0wNaaCchAUt-77" style="edgeStyle=none;html=1;" parent="ypSkSioEh0wNaaCchAUt-67" edge="1">
                    <mxGeometry relative="1" as="geometry">
                        <mxPoint x="223" y="260" as="targetPoint"/>
                    </mxGeometry>
                </mxCell>
                <mxCell id="ypSkSioEh0wNaaCchAUt-78" style="edgeStyle=none;html=1;" parent="ypSkSioEh0wNaaCchAUt-67" edge="1">
                    <mxGeometry relative="1" as="geometry">
                        <mxPoint x="246" y="260" as="targetPoint"/>
                    </mxGeometry>
                </mxCell>
                <mxCell id="8e6pNccvDbE6GERuyOO8-13" value="&lt;div style=&quot;color: rgb(212, 212, 212); background-color: rgb(30, 30, 30); font-family: Consolas, &amp;quot;Courier New&amp;quot;, monospace; font-size: 14px; line-height: 19px;&quot;&gt;&lt;div style=&quot;line-height: 19px;&quot;&gt;&lt;div style=&quot;line-height: 19px;&quot;&gt;&lt;div style=&quot;line-height: 19px;&quot;&gt;&lt;span style=&quot;color: #9cdcfe;&quot;&gt;playerIds&lt;/span&gt;&lt;/div&gt;&lt;/div&gt;&lt;/div&gt;&lt;/div&gt;" style="html=1;" parent="ypSkSioEh0wNaaCchAUt-67" vertex="1">
                    <mxGeometry x="550" y="50" width="110" height="30" as="geometry"/>
                </mxCell>
                <mxCell id="8e6pNccvDbE6GERuyOO8-14" style="edgeStyle=none;html=1;" parent="ypSkSioEh0wNaaCchAUt-67" source="8e6pNccvDbE6GERuyOO8-15" target="8e6pNccvDbE6GERuyOO8-13" edge="1">
                    <mxGeometry relative="1" as="geometry"/>
                </mxCell>
                <mxCell id="8e6pNccvDbE6GERuyOO8-15" value="&lt;div style=&quot;color: rgb(212, 212, 212); background-color: rgb(30, 30, 30); font-family: Consolas, &amp;quot;Courier New&amp;quot;, monospace; font-size: 14px; line-height: 19px;&quot;&gt;&lt;div style=&quot;line-height: 19px;&quot;&gt;&lt;div style=&quot;line-height: 19px;&quot;&gt;&lt;div style=&quot;line-height: 19px;&quot;&gt;&lt;div style=&quot;line-height: 19px;&quot;&gt;&lt;span style=&quot;color: #dcdcaa;&quot;&gt;getNewplayerId&lt;/span&gt;&lt;/div&gt;&lt;/div&gt;&lt;/div&gt;&lt;/div&gt;&lt;/div&gt;" style="html=1;" parent="ypSkSioEh0wNaaCchAUt-67" vertex="1">
                    <mxGeometry x="510" y="110" width="110" height="30" as="geometry"/>
                </mxCell>
                <mxCell id="8e6pNccvDbE6GERuyOO8-16" style="edgeStyle=none;html=1;" parent="ypSkSioEh0wNaaCchAUt-67" source="8e6pNccvDbE6GERuyOO8-17" target="8e6pNccvDbE6GERuyOO8-13" edge="1">
                    <mxGeometry relative="1" as="geometry"/>
                </mxCell>
                <mxCell id="8e6pNccvDbE6GERuyOO8-17" value="&lt;div style=&quot;color: rgb(212, 212, 212); background-color: rgb(30, 30, 30); font-family: Consolas, &amp;quot;Courier New&amp;quot;, monospace; font-size: 14px; line-height: 19px;&quot;&gt;&lt;div style=&quot;line-height: 19px;&quot;&gt;&lt;div style=&quot;line-height: 19px;&quot;&gt;&lt;div style=&quot;line-height: 19px;&quot;&gt;&lt;div style=&quot;line-height: 19px;&quot;&gt;&lt;div style=&quot;line-height: 19px;&quot;&gt;&lt;span style=&quot;color: #dcdcaa;&quot;&gt;remove&lt;/span&gt;&lt;/div&gt;&lt;/div&gt;&lt;/div&gt;&lt;/div&gt;&lt;/div&gt;&lt;/div&gt;" style="html=1;" parent="ypSkSioEh0wNaaCchAUt-67" vertex="1">
                    <mxGeometry x="610" y="170" width="110" height="30" as="geometry"/>
                </mxCell>
                <mxCell id="8e6pNccvDbE6GERuyOO8-22" value="&lt;div style=&quot;color: rgb(212, 212, 212); background-color: rgb(30, 30, 30); font-family: Consolas, &amp;quot;Courier New&amp;quot;, monospace; font-size: 14px; line-height: 19px;&quot;&gt;&lt;div style=&quot;line-height: 19px;&quot;&gt;&lt;div style=&quot;line-height: 19px;&quot;&gt;&lt;div style=&quot;line-height: 19px;&quot;&gt;&lt;div style=&quot;line-height: 19px;&quot;&gt;&lt;div style=&quot;line-height: 19px;&quot;&gt;&lt;span style=&quot;color: #9cdcfe;&quot;&gt;wss&lt;/span&gt;&lt;/div&gt;&lt;/div&gt;&lt;/div&gt;&lt;/div&gt;&lt;/div&gt;&lt;/div&gt;" style="html=1;" parent="ypSkSioEh0wNaaCchAUt-67" vertex="1">
                    <mxGeometry x="390" y="50" width="110" height="30" as="geometry"/>
                </mxCell>
                <mxCell id="8e6pNccvDbE6GERuyOO8-23" style="edgeStyle=none;html=1;" parent="ypSkSioEh0wNaaCchAUt-67" source="8e6pNccvDbE6GERuyOO8-24" target="8e6pNccvDbE6GERuyOO8-22" edge="1">
                    <mxGeometry relative="1" as="geometry"/>
                </mxCell>
                <mxCell id="8e6pNccvDbE6GERuyOO8-24" value="&lt;div style=&quot;color: rgb(212, 212, 212); background-color: rgb(30, 30, 30); font-family: Consolas, &amp;quot;Courier New&amp;quot;, monospace; font-size: 14px; line-height: 19px;&quot;&gt;&lt;div style=&quot;line-height: 19px;&quot;&gt;&lt;div style=&quot;line-height: 19px;&quot;&gt;&lt;div style=&quot;line-height: 19px;&quot;&gt;&lt;div style=&quot;line-height: 19px;&quot;&gt;&lt;div style=&quot;line-height: 19px;&quot;&gt;&lt;span style=&quot;color: #dcdcaa;&quot;&gt;getPlayerOnTableByName&lt;/span&gt;&lt;/div&gt;&lt;/div&gt;&lt;/div&gt;&lt;/div&gt;&lt;/div&gt;&lt;/div&gt;" style="html=1;" parent="ypSkSioEh0wNaaCchAUt-67" vertex="1">
                    <mxGeometry x="70" y="120" width="210" height="35" as="geometry"/>
                </mxCell>
                <mxCell id="ypSkSioEh0wNaaCchAUt-81" value="" style="edgeStyle=none;html=1;endArrow=none;" parent="8e6pNccvDbE6GERuyOO8-1" source="8e6pNccvDbE6GERuyOO8-88" target="ypSkSioEh0wNaaCchAUt-0" edge="1">
                    <mxGeometry relative="1" as="geometry">
                        <mxPoint x="528.648221343873" y="1160" as="sourcePoint"/>
                        <mxPoint x="246.57707509881402" y="-1970" as="targetPoint"/>
                    </mxGeometry>
                </mxCell>
                <mxCell id="ypSkSioEh0wNaaCchAUt-0" value="TableFunctions" style="shape=folder;fontStyle=1;tabWidth=110;tabHeight=30;tabPosition=left;html=1;boundedLbl=1;labelInHeader=1;container=1;collapsible=0;recursiveResize=0;fillStyle=auto;strokeWidth=1;perimeterSpacing=0;opacity=70;" parent="8e6pNccvDbE6GERuyOO8-1" vertex="1">
                    <mxGeometry x="-1050" y="-350" width="1460" height="430" as="geometry"/>
                </mxCell>
                <mxCell id="ypSkSioEh0wNaaCchAUt-1" value="Packaged element1" style="html=1;" parent="ypSkSioEh0wNaaCchAUt-0" vertex="1">
                    <mxGeometry width="110" height="30" relative="1" as="geometry">
                        <mxPoint x="20" y="50" as="offset"/>
                    </mxGeometry>
                </mxCell>
                <mxCell id="8e6pNccvDbE6GERuyOO8-51" value="&lt;div style=&quot;color: rgb(212, 212, 212); background-color: rgb(30, 30, 30); font-family: Consolas, &amp;quot;Courier New&amp;quot;, monospace; font-size: 14px; line-height: 19px;&quot;&gt;&lt;div style=&quot;line-height: 19px;&quot;&gt;&lt;div style=&quot;line-height: 19px;&quot;&gt;&lt;div style=&quot;line-height: 19px;&quot;&gt;&lt;div style=&quot;line-height: 19px;&quot;&gt;&lt;div style=&quot;line-height: 19px;&quot;&gt;&lt;div style=&quot;line-height: 19px;&quot;&gt;&lt;div style=&quot;line-height: 19px;&quot;&gt;&lt;span style=&quot;color: #dcdcaa;&quot;&gt;PlayerNumberReached&lt;/span&gt;&lt;/div&gt;&lt;/div&gt;&lt;/div&gt;&lt;/div&gt;&lt;/div&gt;&lt;/div&gt;&lt;/div&gt;&lt;/div&gt;" style="html=1;" parent="ypSkSioEh0wNaaCchAUt-0" vertex="1">
                    <mxGeometry x="300" y="380" width="160" height="30" as="geometry"/>
                </mxCell>
                <mxCell id="8e6pNccvDbE6GERuyOO8-64" value="&lt;div style=&quot;color: rgb(212, 212, 212); background-color: rgb(30, 30, 30); font-family: Consolas, &amp;quot;Courier New&amp;quot;, monospace; font-size: 14px; line-height: 19px;&quot;&gt;&lt;div style=&quot;line-height: 19px;&quot;&gt;&lt;div style=&quot;line-height: 19px;&quot;&gt;&lt;div style=&quot;line-height: 19px;&quot;&gt;&lt;div style=&quot;line-height: 19px;&quot;&gt;&lt;div style=&quot;line-height: 19px;&quot;&gt;&lt;div style=&quot;line-height: 19px;&quot;&gt;&lt;div style=&quot;line-height: 19px;&quot;&gt;&lt;div style=&quot;line-height: 19px;&quot;&gt;&lt;span style=&quot;color: #dcdcaa;&quot;&gt;determineRoles&lt;/span&gt;&lt;/div&gt;&lt;/div&gt;&lt;/div&gt;&lt;/div&gt;&lt;/div&gt;&lt;/div&gt;&lt;/div&gt;&lt;/div&gt;&lt;/div&gt;" style="html=1;" parent="ypSkSioEh0wNaaCchAUt-0" vertex="1">
                    <mxGeometry x="870" y="370" width="160" height="30" as="geometry"/>
                </mxCell>
                <mxCell id="8e6pNccvDbE6GERuyOO8-73" value="&lt;div style=&quot;color: rgb(212, 212, 212); background-color: rgb(30, 30, 30); font-family: Consolas, &amp;quot;Courier New&amp;quot;, monospace; font-size: 14px; line-height: 19px;&quot;&gt;&lt;div style=&quot;line-height: 19px;&quot;&gt;&lt;div style=&quot;line-height: 19px;&quot;&gt;&lt;div style=&quot;line-height: 19px;&quot;&gt;&lt;div style=&quot;line-height: 19px;&quot;&gt;&lt;div style=&quot;line-height: 19px;&quot;&gt;&lt;div style=&quot;line-height: 19px;&quot;&gt;&lt;div style=&quot;line-height: 19px;&quot;&gt;&lt;span style=&quot;color: #dcdcaa;&quot;&gt;nextPlayer&lt;/span&gt;&lt;/div&gt;&lt;/div&gt;&lt;/div&gt;&lt;/div&gt;&lt;/div&gt;&lt;/div&gt;&lt;/div&gt;&lt;/div&gt;" style="html=1;" parent="ypSkSioEh0wNaaCchAUt-0" vertex="1">
                    <mxGeometry x="70" y="380" width="160" height="30" as="geometry"/>
                </mxCell>
                <mxCell id="8e6pNccvDbE6GERuyOO8-34" value="&lt;div style=&quot;color: rgb(212, 212, 212); background-color: rgb(30, 30, 30); font-family: Consolas, &amp;quot;Courier New&amp;quot;, monospace; font-size: 14px; line-height: 19px;&quot;&gt;&lt;div style=&quot;line-height: 19px;&quot;&gt;&lt;div style=&quot;line-height: 19px;&quot;&gt;&lt;div style=&quot;line-height: 19px;&quot;&gt;&lt;div style=&quot;line-height: 19px;&quot;&gt;&lt;div style=&quot;line-height: 19px;&quot;&gt;&lt;div style=&quot;line-height: 19px;&quot;&gt;&lt;span style=&quot;color: #dcdcaa;&quot;&gt;broadcastNewState&lt;/span&gt;&lt;/div&gt;&lt;/div&gt;&lt;/div&gt;&lt;/div&gt;&lt;/div&gt;&lt;/div&gt;&lt;/div&gt;" style="html=1;" parent="ypSkSioEh0wNaaCchAUt-0" vertex="1">
                    <mxGeometry x="560" y="360" width="160" height="30" as="geometry"/>
                </mxCell>
                <mxCell id="8e6pNccvDbE6GERuyOO8-29" value="&lt;div style=&quot;color: rgb(212, 212, 212); background-color: rgb(30, 30, 30); font-family: Consolas, &amp;quot;Courier New&amp;quot;, monospace; font-size: 14px; line-height: 19px;&quot;&gt;&lt;div style=&quot;line-height: 19px;&quot;&gt;&lt;div style=&quot;line-height: 19px;&quot;&gt;&lt;div style=&quot;line-height: 19px;&quot;&gt;&lt;div style=&quot;line-height: 19px;&quot;&gt;&lt;div style=&quot;line-height: 19px;&quot;&gt;&lt;div style=&quot;line-height: 19px;&quot;&gt;&lt;div style=&quot;line-height: 19px;&quot;&gt;&lt;span style=&quot;color: #dcdcaa;&quot;&gt;getPrivateState&lt;/span&gt;&lt;/div&gt;&lt;/div&gt;&lt;/div&gt;&lt;/div&gt;&lt;/div&gt;&lt;/div&gt;&lt;/div&gt;&lt;/div&gt;" style="html=1;" parent="ypSkSioEh0wNaaCchAUt-0" vertex="1">
                    <mxGeometry x="70" y="260" width="160" height="30" as="geometry"/>
                </mxCell>
                <mxCell id="8e6pNccvDbE6GERuyOO8-31" value="&lt;div style=&quot;color: rgb(212, 212, 212); background-color: rgb(30, 30, 30); font-family: Consolas, &amp;quot;Courier New&amp;quot;, monospace; font-size: 14px; line-height: 19px;&quot;&gt;&lt;div style=&quot;line-height: 19px;&quot;&gt;&lt;div style=&quot;line-height: 19px;&quot;&gt;&lt;div style=&quot;line-height: 19px;&quot;&gt;&lt;div style=&quot;line-height: 19px;&quot;&gt;&lt;div style=&quot;line-height: 19px;&quot;&gt;&lt;div style=&quot;line-height: 19px;&quot;&gt;&lt;div style=&quot;line-height: 19px;&quot;&gt;&lt;span style=&quot;color: rgb(156, 220, 254);&quot;&gt;TABLE STRUCTURE&lt;/span&gt;&lt;br&gt;&lt;/div&gt;&lt;/div&gt;&lt;/div&gt;&lt;/div&gt;&lt;/div&gt;&lt;/div&gt;&lt;/div&gt;&lt;/div&gt;" style="html=1;" parent="ypSkSioEh0wNaaCchAUt-0" vertex="1">
                    <mxGeometry x="360" y="80" width="160" height="30" as="geometry"/>
                </mxCell>
                <mxCell id="8e6pNccvDbE6GERuyOO8-28" style="edgeStyle=none;html=1;" parent="ypSkSioEh0wNaaCchAUt-0" source="8e6pNccvDbE6GERuyOO8-29" target="8e6pNccvDbE6GERuyOO8-31" edge="1">
                    <mxGeometry relative="1" as="geometry"/>
                </mxCell>
                <mxCell id="8e6pNccvDbE6GERuyOO8-48" style="edgeStyle=none;html=1;entryX=0.75;entryY=1;entryDx=0;entryDy=0;" parent="ypSkSioEh0wNaaCchAUt-0" source="8e6pNccvDbE6GERuyOO8-73" target="8e6pNccvDbE6GERuyOO8-31" edge="1">
                    <mxGeometry relative="1" as="geometry"/>
                </mxCell>
                <mxCell id="8e6pNccvDbE6GERuyOO8-50" style="edgeStyle=none;html=1;" parent="ypSkSioEh0wNaaCchAUt-0" source="8e6pNccvDbE6GERuyOO8-51" target="8e6pNccvDbE6GERuyOO8-31" edge="1">
                    <mxGeometry relative="1" as="geometry"/>
                </mxCell>
                <mxCell id="8e6pNccvDbE6GERuyOO8-63" style="edgeStyle=none;html=1;" parent="ypSkSioEh0wNaaCchAUt-0" source="8e6pNccvDbE6GERuyOO8-64" target="8e6pNccvDbE6GERuyOO8-31" edge="1">
                    <mxGeometry relative="1" as="geometry"/>
                </mxCell>
                <mxCell id="8e6pNccvDbE6GERuyOO8-55" value="&lt;div style=&quot;color: rgb(212, 212, 212); background-color: rgb(30, 30, 30); font-family: Consolas, &amp;quot;Courier New&amp;quot;, monospace; font-size: 14px; line-height: 19px;&quot;&gt;&lt;div style=&quot;line-height: 19px;&quot;&gt;&lt;div style=&quot;line-height: 19px;&quot;&gt;&lt;div style=&quot;line-height: 19px;&quot;&gt;&lt;div style=&quot;line-height: 19px;&quot;&gt;&lt;div style=&quot;line-height: 19px;&quot;&gt;&lt;div style=&quot;line-height: 19px;&quot;&gt;&lt;div style=&quot;line-height: 19px;&quot;&gt;&lt;div style=&quot;line-height: 19px;&quot;&gt;&lt;span style=&quot;color: #dcdcaa;&quot;&gt;makeTable&lt;/span&gt;&lt;/div&gt;&lt;/div&gt;&lt;/div&gt;&lt;/div&gt;&lt;/div&gt;&lt;/div&gt;&lt;/div&gt;&lt;/div&gt;&lt;/div&gt;" style="html=1;" parent="ypSkSioEh0wNaaCchAUt-0" vertex="1">
                    <mxGeometry x="1140" y="370" width="160" height="30" as="geometry"/>
                </mxCell>
                <mxCell id="8e6pNccvDbE6GERuyOO8-30" style="edgeStyle=none;html=1;" parent="ypSkSioEh0wNaaCchAUt-0" source="8e6pNccvDbE6GERuyOO8-31" target="8e6pNccvDbE6GERuyOO8-55" edge="1">
                    <mxGeometry relative="1" as="geometry"/>
                </mxCell>
                <mxCell id="8e6pNccvDbE6GERuyOO8-26" value="&lt;div style=&quot;color: rgb(212, 212, 212); background-color: rgb(30, 30, 30); font-family: Consolas, &amp;quot;Courier New&amp;quot;, monospace; font-size: 14px; line-height: 19px;&quot;&gt;&lt;div style=&quot;line-height: 19px;&quot;&gt;&lt;div style=&quot;line-height: 19px;&quot;&gt;&lt;div style=&quot;line-height: 19px;&quot;&gt;&lt;div style=&quot;line-height: 19px;&quot;&gt;&lt;div style=&quot;line-height: 19px;&quot;&gt;&lt;div style=&quot;line-height: 19px;&quot;&gt;&lt;span style=&quot;color: #dcdcaa;&quot;&gt;getPlayerById&lt;/span&gt;&lt;/div&gt;&lt;/div&gt;&lt;/div&gt;&lt;/div&gt;&lt;/div&gt;&lt;/div&gt;&lt;/div&gt;" style="html=1;" parent="ypSkSioEh0wNaaCchAUt-0" vertex="1">
                    <mxGeometry x="870" y="70" width="160" height="30" as="geometry"/>
                </mxCell>
                <mxCell id="8e6pNccvDbE6GERuyOO8-47" style="edgeStyle=none;html=1;" parent="ypSkSioEh0wNaaCchAUt-0" source="8e6pNccvDbE6GERuyOO8-73" target="8e6pNccvDbE6GERuyOO8-26" edge="1">
                    <mxGeometry relative="1" as="geometry"/>
                </mxCell>
                <mxCell id="8e6pNccvDbE6GERuyOO8-62" style="edgeStyle=none;html=1;" parent="ypSkSioEh0wNaaCchAUt-0" source="8e6pNccvDbE6GERuyOO8-64" target="8e6pNccvDbE6GERuyOO8-26" edge="1">
                    <mxGeometry relative="1" as="geometry"/>
                </mxCell>
                <mxCell id="8e6pNccvDbE6GERuyOO8-21" value="&lt;div style=&quot;color: rgb(212, 212, 212); background-color: rgb(30, 30, 30); font-family: Consolas, &amp;quot;Courier New&amp;quot;, monospace; font-size: 14px; line-height: 19px;&quot;&gt;&lt;div style=&quot;line-height: 19px;&quot;&gt;&lt;div style=&quot;line-height: 19px;&quot;&gt;&lt;div style=&quot;line-height: 19px;&quot;&gt;&lt;div style=&quot;line-height: 19px;&quot;&gt;&lt;div style=&quot;line-height: 19px;&quot;&gt;&lt;span style=&quot;color: #dcdcaa;&quot;&gt;getPlayersOnTable&lt;/span&gt;&lt;/div&gt;&lt;/div&gt;&lt;/div&gt;&lt;/div&gt;&lt;/div&gt;&lt;/div&gt;" style="html=1;" parent="ypSkSioEh0wNaaCchAUt-0" vertex="1">
                    <mxGeometry x="1270" y="70" width="160" height="30" as="geometry"/>
                </mxCell>
                <mxCell id="8e6pNccvDbE6GERuyOO8-32" style="edgeStyle=none;html=1;" parent="ypSkSioEh0wNaaCchAUt-0" source="8e6pNccvDbE6GERuyOO8-34" target="8e6pNccvDbE6GERuyOO8-21" edge="1">
                    <mxGeometry relative="1" as="geometry"/>
                </mxCell>
                <mxCell id="8e6pNccvDbE6GERuyOO8-49" style="edgeStyle=none;html=1;" parent="ypSkSioEh0wNaaCchAUt-0" source="8e6pNccvDbE6GERuyOO8-51" target="8e6pNccvDbE6GERuyOO8-21" edge="1">
                    <mxGeometry relative="1" as="geometry"/>
                </mxCell>
                <mxCell id="8e6pNccvDbE6GERuyOO8-61" style="edgeStyle=none;html=1;" parent="ypSkSioEh0wNaaCchAUt-0" source="8e6pNccvDbE6GERuyOO8-64" target="8e6pNccvDbE6GERuyOO8-21" edge="1">
                    <mxGeometry relative="1" as="geometry"/>
                </mxCell>
                <mxCell id="8e6pNccvDbE6GERuyOO8-57" value="&lt;div style=&quot;color: rgb(212, 212, 212); background-color: rgb(30, 30, 30); font-family: Consolas, &amp;quot;Courier New&amp;quot;, monospace; font-size: 14px; line-height: 19px;&quot;&gt;&lt;div style=&quot;line-height: 19px;&quot;&gt;&lt;div style=&quot;line-height: 19px;&quot;&gt;&lt;div style=&quot;line-height: 19px;&quot;&gt;&lt;div style=&quot;line-height: 19px;&quot;&gt;&lt;div style=&quot;line-height: 19px;&quot;&gt;&lt;div style=&quot;line-height: 19px;&quot;&gt;&lt;div style=&quot;line-height: 19px;&quot;&gt;&lt;div style=&quot;line-height: 19px;&quot;&gt;&lt;span style=&quot;color: #dcdcaa;&quot;&gt;JoinTable&lt;/span&gt;&lt;/div&gt;&lt;/div&gt;&lt;/div&gt;&lt;/div&gt;&lt;/div&gt;&lt;/div&gt;&lt;/div&gt;&lt;/div&gt;&lt;/div&gt;" style="html=1;" parent="ypSkSioEh0wNaaCchAUt-0" vertex="1">
                    <mxGeometry x="1270" y="280" width="160" height="30" as="geometry"/>
                </mxCell>
                <mxCell id="8e6pNccvDbE6GERuyOO8-39" value="&lt;div style=&quot;color: rgb(212, 212, 212); background-color: rgb(30, 30, 30); font-family: Consolas, &amp;quot;Courier New&amp;quot;, monospace; font-size: 14px; line-height: 19px;&quot;&gt;&lt;div style=&quot;line-height: 19px;&quot;&gt;&lt;div style=&quot;line-height: 19px;&quot;&gt;&lt;div style=&quot;line-height: 19px;&quot;&gt;&lt;div style=&quot;line-height: 19px;&quot;&gt;&lt;div style=&quot;line-height: 19px;&quot;&gt;&lt;div style=&quot;line-height: 19px;&quot;&gt;&lt;span style=&quot;color: #dcdcaa;&quot;&gt;dealCards&lt;/span&gt;&lt;/div&gt;&lt;/div&gt;&lt;/div&gt;&lt;/div&gt;&lt;/div&gt;&lt;/div&gt;&lt;/div&gt;" style="html=1;" parent="ypSkSioEh0wNaaCchAUt-0" vertex="1">
                    <mxGeometry x="1290" y="170" width="160" height="30" as="geometry"/>
                </mxCell>
                <mxCell id="8e6pNccvDbE6GERuyOO8-35" style="edgeStyle=none;html=1;" parent="ypSkSioEh0wNaaCchAUt-0" source="8e6pNccvDbE6GERuyOO8-39" target="8e6pNccvDbE6GERuyOO8-21" edge="1">
                    <mxGeometry relative="1" as="geometry"/>
                </mxCell>
                <mxCell id="8e6pNccvDbE6GERuyOO8-25" style="edgeStyle=none;html=1;" parent="8e6pNccvDbE6GERuyOO8-1" source="8e6pNccvDbE6GERuyOO8-26" target="8e6pNccvDbE6GERuyOO8-22" edge="1">
                    <mxGeometry relative="1" as="geometry"/>
                </mxCell>
                <mxCell id="8e6pNccvDbE6GERuyOO8-42" style="edgeStyle=none;html=1;" parent="8e6pNccvDbE6GERuyOO8-1" source="8e6pNccvDbE6GERuyOO8-46" target="8e6pNccvDbE6GERuyOO8-31" edge="1">
                    <mxGeometry relative="1" as="geometry"/>
                </mxCell>
                <mxCell id="8e6pNccvDbE6GERuyOO8-20" style="edgeStyle=none;html=1;entryX=0.5;entryY=1;entryDx=0;entryDy=0;" parent="8e6pNccvDbE6GERuyOO8-1" source="8e6pNccvDbE6GERuyOO8-21" target="8e6pNccvDbE6GERuyOO8-22" edge="1">
                    <mxGeometry relative="1" as="geometry"/>
                </mxCell>
                <mxCell id="d-V_iymDTbtb4yCQC2UG-2" value="&lt;div style=&quot;color: rgb(212, 212, 212); background-color: rgb(30, 30, 30); font-family: Consolas, &amp;quot;Courier New&amp;quot;, monospace; font-size: 14px; line-height: 19px;&quot;&gt;&lt;div style=&quot;line-height: 19px;&quot;&gt;&lt;div style=&quot;line-height: 19px;&quot;&gt;&lt;div style=&quot;line-height: 19px;&quot;&gt;&lt;div style=&quot;line-height: 19px;&quot;&gt;&lt;div style=&quot;line-height: 19px;&quot;&gt;&lt;div style=&quot;line-height: 19px;&quot;&gt;&lt;div style=&quot;line-height: 19px;&quot;&gt;&lt;span style=&quot;color: #dcdcaa;&quot;&gt;case:&amp;nbsp;&lt;/span&gt;&lt;span style=&quot;color: rgb(206, 145, 120);&quot;&gt;playCards&lt;/span&gt;&lt;/div&gt;&lt;/div&gt;&lt;/div&gt;&lt;/div&gt;&lt;/div&gt;&lt;/div&gt;&lt;/div&gt;&lt;/div&gt;" style="html=1;" parent="8e6pNccvDbE6GERuyOO8-1" vertex="1">
                    <mxGeometry x="1000" y="470" width="160" height="30" as="geometry"/>
                </mxCell>
                <mxCell id="8e6pNccvDbE6GERuyOO8-40" style="edgeStyle=none;html=1;" parent="8e6pNccvDbE6GERuyOO8-1" source="8e6pNccvDbE6GERuyOO8-41" target="8e6pNccvDbE6GERuyOO8-27" edge="1">
                    <mxGeometry relative="1" as="geometry"/>
                </mxCell>
            </root>
        </mxGraphModel>
    </diagram>
    <diagram id="HPzZaL8RlBb28RzztNmw" name="Page-2">
        <mxGraphModel dx="1004" dy="891" grid="1" gridSize="10" guides="1" tooltips="1" connect="1" arrows="1" fold="1" page="1" pageScale="1" pageWidth="850" pageHeight="1100" math="0" shadow="0">
            <root>
                <mxCell id="0"/>
                <mxCell id="1" parent="0"/>
                <mxCell id="9hZWoCC4G8xl2izFlGTd-18" style="edgeStyle=none;html=1;" parent="1" source="9hZWoCC4G8xl2izFlGTd-1" target="9hZWoCC4G8xl2izFlGTd-17" edge="1">
                    <mxGeometry relative="1" as="geometry"/>
                </mxCell>
                <mxCell id="9hZWoCC4G8xl2izFlGTd-1" value="&lt;br&gt;&lt;b&gt;Player&amp;nbsp;&lt;/b&gt;" style="swimlane;fontStyle=0;align=center;verticalAlign=top;childLayout=stackLayout;horizontal=1;startSize=55;horizontalStack=0;resizeParent=1;resizeParentMax=0;resizeLast=0;collapsible=0;marginBottom=0;html=1;" parent="1" vertex="1">
                    <mxGeometry x="210" y="260" width="200" height="183" as="geometry"/>
                </mxCell>
                <mxCell id="9hZWoCC4G8xl2izFlGTd-2" value="attributes" style="text;html=1;strokeColor=none;fillColor=none;align=center;verticalAlign=middle;spacingLeft=4;spacingRight=4;overflow=hidden;rotatable=0;points=[[0,0.5],[1,0.5]];portConstraint=eastwest;" parent="9hZWoCC4G8xl2izFlGTd-1" vertex="1">
                    <mxGeometry y="55" width="200" height="20" as="geometry"/>
                </mxCell>
                <mxCell id="9hZWoCC4G8xl2izFlGTd-3" value="table" style="text;html=1;strokeColor=none;fillColor=none;align=left;verticalAlign=middle;spacingLeft=4;spacingRight=4;overflow=hidden;rotatable=0;points=[[0,0.5],[1,0.5]];portConstraint=eastwest;" parent="9hZWoCC4G8xl2izFlGTd-1" vertex="1">
                    <mxGeometry y="75" width="200" height="20" as="geometry"/>
                </mxCell>
                <mxCell id="9hZWoCC4G8xl2izFlGTd-6" value="" style="line;strokeWidth=1;fillColor=none;align=left;verticalAlign=middle;spacingTop=-1;spacingLeft=3;spacingRight=3;rotatable=0;labelPosition=right;points=[];portConstraint=eastwest;" parent="9hZWoCC4G8xl2izFlGTd-1" vertex="1">
                    <mxGeometry y="95" width="200" height="8" as="geometry"/>
                </mxCell>
                <mxCell id="9hZWoCC4G8xl2izFlGTd-7" value="operations" style="text;html=1;strokeColor=none;fillColor=none;align=center;verticalAlign=middle;spacingLeft=4;spacingRight=4;overflow=hidden;rotatable=0;points=[[0,0.5],[1,0.5]];portConstraint=eastwest;" parent="9hZWoCC4G8xl2izFlGTd-1" vertex="1">
                    <mxGeometry y="103" width="200" height="20" as="geometry"/>
                </mxCell>
                <mxCell id="9hZWoCC4G8xl2izFlGTd-8" value="&lt;span style=&quot;color: rgb(220, 220, 170); font-family: Consolas, &amp;quot;Courier New&amp;quot;, monospace; font-size: 14px; text-align: center; background-color: rgb(30, 30, 30);&quot;&gt;playCards&lt;/span&gt;" style="text;html=1;strokeColor=none;fillColor=none;align=left;verticalAlign=middle;spacingLeft=4;spacingRight=4;overflow=hidden;rotatable=0;points=[[0,0.5],[1,0.5]];portConstraint=eastwest;" parent="9hZWoCC4G8xl2izFlGTd-1" vertex="1">
                    <mxGeometry y="123" width="200" height="20" as="geometry"/>
                </mxCell>
                <mxCell id="9hZWoCC4G8xl2izFlGTd-19" value="operation1" style="text;html=1;strokeColor=none;fillColor=none;align=left;verticalAlign=middle;spacingLeft=4;spacingRight=4;overflow=hidden;rotatable=0;points=[[0,0.5],[1,0.5]];portConstraint=eastwest;" parent="9hZWoCC4G8xl2izFlGTd-1" vertex="1">
                    <mxGeometry y="143" width="200" height="20" as="geometry"/>
                </mxCell>
                <mxCell id="9hZWoCC4G8xl2izFlGTd-20" value="operation1" style="text;html=1;strokeColor=none;fillColor=none;align=left;verticalAlign=middle;spacingLeft=4;spacingRight=4;overflow=hidden;rotatable=0;points=[[0,0.5],[1,0.5]];portConstraint=eastwest;" parent="9hZWoCC4G8xl2izFlGTd-1" vertex="1">
                    <mxGeometry y="163" width="200" height="20" as="geometry"/>
                </mxCell>
                <mxCell id="9hZWoCC4G8xl2izFlGTd-9" value="&lt;br&gt;Table" style="swimlane;fontStyle=0;align=center;verticalAlign=top;childLayout=stackLayout;horizontal=1;startSize=55;horizontalStack=0;resizeParent=1;resizeParentMax=0;resizeLast=0;collapsible=0;marginBottom=0;html=1;" parent="1" vertex="1">
                    <mxGeometry x="590" y="270" width="170" height="163" as="geometry"/>
                </mxCell>
                <mxCell id="9hZWoCC4G8xl2izFlGTd-10" value="attributes" style="text;html=1;strokeColor=none;fillColor=none;align=center;verticalAlign=middle;spacingLeft=4;spacingRight=4;overflow=hidden;rotatable=0;points=[[0,0.5],[1,0.5]];portConstraint=eastwest;" parent="9hZWoCC4G8xl2izFlGTd-9" vertex="1">
                    <mxGeometry y="55" width="170" height="20" as="geometry"/>
                </mxCell>
                <mxCell id="9hZWoCC4G8xl2izFlGTd-11" value="table" style="text;html=1;strokeColor=none;fillColor=none;align=left;verticalAlign=middle;spacingLeft=4;spacingRight=4;overflow=hidden;rotatable=0;points=[[0,0.5],[1,0.5]];portConstraint=eastwest;" parent="9hZWoCC4G8xl2izFlGTd-9" vertex="1">
                    <mxGeometry y="75" width="170" height="20" as="geometry"/>
                </mxCell>
                <mxCell id="9hZWoCC4G8xl2izFlGTd-12" value="..." style="text;html=1;strokeColor=none;fillColor=none;align=left;verticalAlign=middle;spacingLeft=4;spacingRight=4;overflow=hidden;rotatable=0;points=[[0,0.5],[1,0.5]];portConstraint=eastwest;" parent="9hZWoCC4G8xl2izFlGTd-9" vertex="1">
                    <mxGeometry y="95" width="170" height="20" as="geometry"/>
                </mxCell>
                <mxCell id="9hZWoCC4G8xl2izFlGTd-13" value="" style="line;strokeWidth=1;fillColor=none;align=left;verticalAlign=middle;spacingTop=-1;spacingLeft=3;spacingRight=3;rotatable=0;labelPosition=right;points=[];portConstraint=eastwest;" parent="9hZWoCC4G8xl2izFlGTd-9" vertex="1">
                    <mxGeometry y="115" width="170" height="8" as="geometry"/>
                </mxCell>
                <mxCell id="9hZWoCC4G8xl2izFlGTd-14" value="operations" style="text;html=1;strokeColor=none;fillColor=none;align=center;verticalAlign=middle;spacingLeft=4;spacingRight=4;overflow=hidden;rotatable=0;points=[[0,0.5],[1,0.5]];portConstraint=eastwest;" parent="9hZWoCC4G8xl2izFlGTd-9" vertex="1">
                    <mxGeometry y="123" width="170" height="20" as="geometry"/>
                </mxCell>
                <mxCell id="9hZWoCC4G8xl2izFlGTd-15" value="operation1" style="text;html=1;strokeColor=none;fillColor=none;align=left;verticalAlign=middle;spacingLeft=4;spacingRight=4;overflow=hidden;rotatable=0;points=[[0,0.5],[1,0.5]];portConstraint=eastwest;" parent="9hZWoCC4G8xl2izFlGTd-9" vertex="1">
                    <mxGeometry y="143" width="170" height="20" as="geometry"/>
                </mxCell>
                <mxCell id="9hZWoCC4G8xl2izFlGTd-16" value="" style="endArrow=none;startArrow=none;endFill=0;startFill=0;endSize=8;html=1;verticalAlign=bottom;labelBackgroundColor=none;strokeWidth=3;" parent="1" source="9hZWoCC4G8xl2izFlGTd-1" target="9hZWoCC4G8xl2izFlGTd-9" edge="1">
                    <mxGeometry width="160" relative="1" as="geometry">
                        <mxPoint x="350" y="460" as="sourcePoint"/>
                        <mxPoint x="510" y="460" as="targetPoint"/>
                    </mxGeometry>
                </mxCell>
                <mxCell id="9hZWoCC4G8xl2izFlGTd-17" value="Websocket" style="shape=process2;fixedSize=1;size=5;fontStyle=1;" parent="1" vertex="1">
                    <mxGeometry x="240" y="130" width="140" height="40" as="geometry"/>
                </mxCell>
            </root>
        </mxGraphModel>
    </diagram>
    <diagram id="VHHXd-7ABAznFmkkB-7z" name="Page-4">
        <mxGraphModel dx="2746" dy="1682" grid="1" gridSize="10" guides="1" tooltips="1" connect="1" arrows="1" fold="1" page="1" pageScale="1" pageWidth="850" pageHeight="1100" math="0" shadow="0">
            <root>
                <mxCell id="0"/>
                <mxCell id="1" parent="0"/>
                <mxCell id="vh27cXpLRZzv-FNVHjsh-1" value="client" style="shape=umlLifeline;perimeter=lifelinePerimeter;whiteSpace=wrap;html=1;container=1;collapsible=0;recursiveResize=0;outlineConnect=0;" parent="1" vertex="1">
                    <mxGeometry x="100" y="50" width="100" height="430" as="geometry"/>
                </mxCell>
                <mxCell id="vh27cXpLRZzv-FNVHjsh-2" value="" style="html=1;points=[];perimeter=orthogonalPerimeter;fillColor=#808080;" parent="vh27cXpLRZzv-FNVHjsh-1" vertex="1">
                    <mxGeometry x="45" y="55" width="10" height="355" as="geometry"/>
                </mxCell>
                <mxCell id="vh27cXpLRZzv-FNVHjsh-3" value="server" style="shape=umlLifeline;perimeter=lifelinePerimeter;whiteSpace=wrap;html=1;container=1;collapsible=0;recursiveResize=0;outlineConnect=0;" parent="1" vertex="1">
                    <mxGeometry x="-20" y="50" width="100" height="430" as="geometry"/>
                </mxCell>
                <mxCell id="vh27cXpLRZzv-FNVHjsh-4" value="" style="html=1;points=[];perimeter=orthogonalPerimeter;" parent="vh27cXpLRZzv-FNVHjsh-3" vertex="1">
                    <mxGeometry x="45" y="55" width="10" height="355" as="geometry"/>
                </mxCell>
                <mxCell id="vh27cXpLRZzv-FNVHjsh-21" style="edgeStyle=none;html=1;" parent="vh27cXpLRZzv-FNVHjsh-3" edge="1">
                    <mxGeometry relative="1" as="geometry">
                        <mxPoint x="60.5" y="350" as="sourcePoint"/>
                        <mxPoint x="175" y="350" as="targetPoint"/>
                        <Array as="points">
                            <mxPoint x="145.5" y="350"/>
                        </Array>
                    </mxGeometry>
                </mxCell>
                <mxCell id="vh27cXpLRZzv-FNVHjsh-22" value="send status" style="edgeLabel;html=1;align=center;verticalAlign=middle;resizable=0;points=[];" parent="vh27cXpLRZzv-FNVHjsh-21" vertex="1" connectable="0">
                    <mxGeometry x="0.0451" relative="1" as="geometry">
                        <mxPoint x="-10" y="-10" as="offset"/>
                    </mxGeometry>
                </mxCell>
                <mxCell id="vh27cXpLRZzv-FNVHjsh-12" style="edgeStyle=none;html=1;" parent="vh27cXpLRZzv-FNVHjsh-3" edge="1">
                    <mxGeometry relative="1" as="geometry">
                        <mxPoint x="55" y="190" as="sourcePoint"/>
                        <mxPoint x="165" y="190" as="targetPoint"/>
                    </mxGeometry>
                </mxCell>
                <mxCell id="vh27cXpLRZzv-FNVHjsh-13" value="send client app&amp;nbsp;" style="edgeLabel;html=1;align=center;verticalAlign=middle;resizable=0;points=[];" parent="vh27cXpLRZzv-FNVHjsh-12" vertex="1" connectable="0">
                    <mxGeometry x="0.4152" y="-2" relative="1" as="geometry">
                        <mxPoint x="-22" y="-12" as="offset"/>
                    </mxGeometry>
                </mxCell>
                <mxCell id="vh27cXpLRZzv-FNVHjsh-10" style="edgeStyle=none;html=1;" parent="1" source="vh27cXpLRZzv-FNVHjsh-1" target="vh27cXpLRZzv-FNVHjsh-3" edge="1">
                    <mxGeometry relative="1" as="geometry">
                        <mxPoint x="40" y="170" as="targetPoint"/>
                        <Array as="points">
                            <mxPoint x="80" y="170"/>
                        </Array>
                    </mxGeometry>
                </mxCell>
                <mxCell id="vh27cXpLRZzv-FNVHjsh-11" value="ruft URL auf" style="edgeLabel;html=1;align=center;verticalAlign=middle;resizable=0;points=[];" parent="vh27cXpLRZzv-FNVHjsh-10" vertex="1" connectable="0">
                    <mxGeometry x="0.1503" y="2" relative="1" as="geometry">
                        <mxPoint x="1" y="-12" as="offset"/>
                    </mxGeometry>
                </mxCell>
                <mxCell id="vh27cXpLRZzv-FNVHjsh-14" style="edgeStyle=none;html=1;" parent="1" source="vh27cXpLRZzv-FNVHjsh-2" target="vh27cXpLRZzv-FNVHjsh-4" edge="1">
                    <mxGeometry relative="1" as="geometry">
                        <mxPoint x="40" y="283" as="targetPoint"/>
                        <Array as="points">
                            <mxPoint x="120" y="310"/>
                        </Array>
                    </mxGeometry>
                </mxCell>
                <mxCell id="vh27cXpLRZzv-FNVHjsh-15" value="send action" style="edgeLabel;html=1;align=center;verticalAlign=middle;resizable=0;points=[];" parent="vh27cXpLRZzv-FNVHjsh-14" vertex="1" connectable="0">
                    <mxGeometry x="0.0545" relative="1" as="geometry">
                        <mxPoint x="3" y="-10" as="offset"/>
                    </mxGeometry>
                </mxCell>
                <mxCell id="SbKfyiGDVJVE8fYFORt4-1" value="ICardGame" style="shape=folder;fontStyle=1;tabWidth=110;tabHeight=30;tabPosition=left;html=1;boundedLbl=1;labelInHeader=1;container=1;collapsible=0;recursiveResize=0;" parent="1" vertex="1">
                    <mxGeometry x="510" y="830" width="200" height="240" as="geometry"/>
                </mxCell>
                <mxCell id="SbKfyiGDVJVE8fYFORt4-13" value="&amp;lt;&amp;lt;Interface&amp;gt;&amp;gt;&lt;br&gt;&lt;b&gt;ICardGame&lt;/b&gt;" style="swimlane;fontStyle=0;align=center;verticalAlign=top;childLayout=stackLayout;horizontal=1;startSize=55;horizontalStack=0;resizeParent=1;resizeParentMax=0;resizeLast=0;collapsible=0;marginBottom=0;html=1;" parent="SbKfyiGDVJVE8fYFORt4-1" vertex="1">
                    <mxGeometry x="30" y="63" width="140" height="123" as="geometry"/>
                </mxCell>
                <mxCell id="SbKfyiGDVJVE8fYFORt4-18" value="" style="line;strokeWidth=1;fillColor=none;align=left;verticalAlign=middle;spacingTop=-1;spacingLeft=3;spacingRight=3;rotatable=0;labelPosition=right;points=[];portConstraint=eastwest;" parent="SbKfyiGDVJVE8fYFORt4-13" vertex="1">
                    <mxGeometry y="55" width="140" height="8" as="geometry"/>
                </mxCell>
                <mxCell id="SbKfyiGDVJVE8fYFORt4-19" value="operations" style="text;html=1;strokeColor=none;fillColor=none;align=center;verticalAlign=middle;spacingLeft=4;spacingRight=4;overflow=hidden;rotatable=0;points=[[0,0.5],[1,0.5]];portConstraint=eastwest;" parent="SbKfyiGDVJVE8fYFORt4-13" vertex="1">
                    <mxGeometry y="63" width="140" height="20" as="geometry"/>
                </mxCell>
                <mxCell id="SbKfyiGDVJVE8fYFORt4-70" value="+ dealCards()" style="text;html=1;strokeColor=none;fillColor=none;align=left;verticalAlign=middle;spacingLeft=4;spacingRight=4;overflow=hidden;rotatable=0;points=[[0,0.5],[1,0.5]];portConstraint=eastwest;" parent="SbKfyiGDVJVE8fYFORt4-13" vertex="1">
                    <mxGeometry y="83" width="140" height="20" as="geometry"/>
                </mxCell>
                <mxCell id="SbKfyiGDVJVE8fYFORt4-20" value="+ run() -&amp;gt; async" style="text;html=1;strokeColor=none;fillColor=none;align=left;verticalAlign=middle;spacingLeft=4;spacingRight=4;overflow=hidden;rotatable=0;points=[[0,0.5],[1,0.5]];portConstraint=eastwest;" parent="SbKfyiGDVJVE8fYFORt4-13" vertex="1">
                    <mxGeometry y="103" width="140" height="20" as="geometry"/>
                </mxCell>
                <mxCell id="SbKfyiGDVJVE8fYFORt4-10" style="edgeStyle=orthogonalEdgeStyle;html=1;" parent="1" source="SbKfyiGDVJVE8fYFORt4-7" target="SbKfyiGDVJVE8fYFORt4-20" edge="1">
                    <mxGeometry relative="1" as="geometry">
                        <mxPoint x="630" y="415" as="targetPoint"/>
                    </mxGeometry>
                </mxCell>
                <mxCell id="SbKfyiGDVJVE8fYFORt4-7" value="Server" style="shape=folder;fontStyle=1;tabWidth=110;tabHeight=30;tabPosition=left;html=1;boundedLbl=1;labelInHeader=1;container=1;collapsible=0;recursiveResize=0;" parent="1" vertex="1">
                    <mxGeometry x="340" y="1160" width="150" height="100" as="geometry"/>
                </mxCell>
                <mxCell id="SbKfyiGDVJVE8fYFORt4-8" value="Packaged element1" style="html=1;" parent="SbKfyiGDVJVE8fYFORt4-7" vertex="1">
                    <mxGeometry width="110" height="30" relative="1" as="geometry">
                        <mxPoint x="20" y="50" as="offset"/>
                    </mxGeometry>
                </mxCell>
                <mxCell id="SbKfyiGDVJVE8fYFORt4-11" value="PresidentGame" style="shape=folder;fontStyle=1;tabWidth=110;tabHeight=30;tabPosition=left;html=1;boundedLbl=1;labelInHeader=1;container=1;collapsible=0;recursiveResize=0;" parent="1" vertex="1">
                    <mxGeometry x="460" y="360" width="280" height="359" as="geometry"/>
                </mxCell>
                <mxCell id="SbKfyiGDVJVE8fYFORt4-58" value="PresidenGame" style="swimlane;fontStyle=0;align=center;verticalAlign=top;childLayout=stackLayout;horizontal=1;startSize=55;horizontalStack=0;resizeParent=1;resizeParentMax=0;resizeLast=0;collapsible=0;marginBottom=0;html=1;" parent="SbKfyiGDVJVE8fYFORt4-11" vertex="1">
                    <mxGeometry x="80" y="78" width="140" height="203" as="geometry"/>
                </mxCell>
                <mxCell id="SbKfyiGDVJVE8fYFORt4-59" value="attributes" style="text;html=1;strokeColor=none;fillColor=none;align=center;verticalAlign=middle;spacingLeft=4;spacingRight=4;overflow=hidden;rotatable=0;points=[[0,0.5],[1,0.5]];portConstraint=eastwest;" parent="SbKfyiGDVJVE8fYFORt4-58" vertex="1">
                    <mxGeometry y="55" width="140" height="20" as="geometry"/>
                </mxCell>
                <mxCell id="SbKfyiGDVJVE8fYFORt4-60" value="state" style="text;html=1;strokeColor=none;fillColor=none;align=left;verticalAlign=middle;spacingLeft=4;spacingRight=4;overflow=hidden;rotatable=0;points=[[0,0.5],[1,0.5]];portConstraint=eastwest;" parent="SbKfyiGDVJVE8fYFORt4-58" vertex="1">
                    <mxGeometry y="75" width="140" height="20" as="geometry"/>
                </mxCell>
                <mxCell id="SbKfyiGDVJVE8fYFORt4-122" value="- Deck: ICardDeck" style="text;html=1;strokeColor=none;fillColor=none;align=left;verticalAlign=middle;spacingLeft=4;spacingRight=4;overflow=hidden;rotatable=0;points=[[0,0.5],[1,0.5]];portConstraint=eastwest;" parent="SbKfyiGDVJVE8fYFORt4-58" vertex="1">
                    <mxGeometry y="95" width="140" height="20" as="geometry"/>
                </mxCell>
                <mxCell id="SbKfyiGDVJVE8fYFORt4-124" value="- Players: Array" style="text;html=1;strokeColor=none;fillColor=none;align=left;verticalAlign=middle;spacingLeft=4;spacingRight=4;overflow=hidden;rotatable=0;points=[[0,0.5],[1,0.5]];portConstraint=eastwest;" parent="SbKfyiGDVJVE8fYFORt4-58" vertex="1">
                    <mxGeometry y="115" width="140" height="20" as="geometry"/>
                </mxCell>
                <mxCell id="SbKfyiGDVJVE8fYFORt4-63" value="" style="line;strokeWidth=1;fillColor=none;align=left;verticalAlign=middle;spacingTop=-1;spacingLeft=3;spacingRight=3;rotatable=0;labelPosition=right;points=[];portConstraint=eastwest;" parent="SbKfyiGDVJVE8fYFORt4-58" vertex="1">
                    <mxGeometry y="135" width="140" height="8" as="geometry"/>
                </mxCell>
                <mxCell id="SbKfyiGDVJVE8fYFORt4-64" value="operations" style="text;html=1;strokeColor=none;fillColor=none;align=center;verticalAlign=middle;spacingLeft=4;spacingRight=4;overflow=hidden;rotatable=0;points=[[0,0.5],[1,0.5]];portConstraint=eastwest;" parent="SbKfyiGDVJVE8fYFORt4-58" vertex="1">
                    <mxGeometry y="143" width="140" height="20" as="geometry"/>
                </mxCell>
                <mxCell id="SbKfyiGDVJVE8fYFORt4-69" value="+ dealCards()" style="text;html=1;strokeColor=none;fillColor=none;align=left;verticalAlign=middle;spacingLeft=4;spacingRight=4;overflow=hidden;rotatable=0;points=[[0,0.5],[1,0.5]];portConstraint=eastwest;" parent="SbKfyiGDVJVE8fYFORt4-58" vertex="1">
                    <mxGeometry y="163" width="140" height="20" as="geometry"/>
                </mxCell>
                <mxCell id="SbKfyiGDVJVE8fYFORt4-65" value="+ run()" style="text;html=1;strokeColor=none;fillColor=none;align=left;verticalAlign=middle;spacingLeft=4;spacingRight=4;overflow=hidden;rotatable=0;points=[[0,0.5],[1,0.5]];portConstraint=eastwest;" parent="SbKfyiGDVJVE8fYFORt4-58" vertex="1">
                    <mxGeometry y="183" width="140" height="20" as="geometry"/>
                </mxCell>
                <mxCell id="SbKfyiGDVJVE8fYFORt4-23" value="Player" style="shape=folder;fontStyle=1;tabWidth=110;tabHeight=30;tabPosition=left;html=1;boundedLbl=1;labelInHeader=1;container=1;collapsible=0;recursiveResize=0;" parent="1" vertex="1">
                    <mxGeometry x="50" y="1290" width="260" height="290" as="geometry"/>
                </mxCell>
                <mxCell id="SbKfyiGDVJVE8fYFORt4-32" value="&lt;b&gt;PresidentPlayer&lt;/b&gt;" style="swimlane;fontStyle=0;align=center;verticalAlign=top;childLayout=stackLayout;horizontal=1;startSize=55;horizontalStack=0;resizeParent=1;resizeParentMax=0;resizeLast=0;collapsible=0;marginBottom=0;html=1;" parent="SbKfyiGDVJVE8fYFORt4-23" vertex="1">
                    <mxGeometry x="50" y="80" width="140" height="143" as="geometry"/>
                </mxCell>
                <mxCell id="SbKfyiGDVJVE8fYFORt4-33" value="attributes" style="text;html=1;strokeColor=none;fillColor=none;align=center;verticalAlign=middle;spacingLeft=4;spacingRight=4;overflow=hidden;rotatable=0;points=[[0,0.5],[1,0.5]];portConstraint=eastwest;" parent="SbKfyiGDVJVE8fYFORt4-32" vertex="1">
                    <mxGeometry y="55" width="140" height="20" as="geometry"/>
                </mxCell>
                <mxCell id="SbKfyiGDVJVE8fYFORt4-34" value="- WebSocket" style="text;html=1;strokeColor=none;fillColor=none;align=left;verticalAlign=middle;spacingLeft=4;spacingRight=4;overflow=hidden;rotatable=0;points=[[0,0.5],[1,0.5]];portConstraint=eastwest;" parent="SbKfyiGDVJVE8fYFORt4-32" vertex="1">
                    <mxGeometry y="75" width="140" height="20" as="geometry"/>
                </mxCell>
                <mxCell id="SbKfyiGDVJVE8fYFORt4-128" value="- Hand:&amp;nbsp;" style="text;html=1;strokeColor=none;fillColor=none;align=left;verticalAlign=middle;spacingLeft=4;spacingRight=4;overflow=hidden;rotatable=0;points=[[0,0.5],[1,0.5]];portConstraint=eastwest;" parent="SbKfyiGDVJVE8fYFORt4-32" vertex="1">
                    <mxGeometry y="95" width="140" height="20" as="geometry"/>
                </mxCell>
                <mxCell id="SbKfyiGDVJVE8fYFORt4-37" value="" style="line;strokeWidth=1;fillColor=none;align=left;verticalAlign=middle;spacingTop=-1;spacingLeft=3;spacingRight=3;rotatable=0;labelPosition=right;points=[];portConstraint=eastwest;" parent="SbKfyiGDVJVE8fYFORt4-32" vertex="1">
                    <mxGeometry y="115" width="140" height="8" as="geometry"/>
                </mxCell>
                <mxCell id="SbKfyiGDVJVE8fYFORt4-38" value="operations" style="text;html=1;strokeColor=none;fillColor=none;align=center;verticalAlign=middle;spacingLeft=4;spacingRight=4;overflow=hidden;rotatable=0;points=[[0,0.5],[1,0.5]];portConstraint=eastwest;" parent="SbKfyiGDVJVE8fYFORt4-32" vertex="1">
                    <mxGeometry y="123" width="140" height="20" as="geometry"/>
                </mxCell>
                <mxCell id="SbKfyiGDVJVE8fYFORt4-21" value="IPlayer" style="shape=folder;fontStyle=1;tabWidth=110;tabHeight=30;tabPosition=left;html=1;boundedLbl=1;labelInHeader=1;container=1;collapsible=0;recursiveResize=0;" parent="1" vertex="1">
                    <mxGeometry y="713" width="330" height="340" as="geometry"/>
                </mxCell>
                <mxCell id="SbKfyiGDVJVE8fYFORt4-44" value="&amp;lt;&amp;lt;Interface&amp;gt;&amp;gt;&lt;br&gt;IPlayer" style="swimlane;fontStyle=0;align=center;verticalAlign=top;childLayout=stackLayout;horizontal=1;startSize=55;horizontalStack=0;resizeParent=1;resizeParentMax=0;resizeLast=0;collapsible=0;marginBottom=0;html=1;" parent="SbKfyiGDVJVE8fYFORt4-21" vertex="1">
                    <mxGeometry x="155" y="57" width="140" height="123" as="geometry"/>
                </mxCell>
                <mxCell id="SbKfyiGDVJVE8fYFORt4-45" value="attributes" style="text;html=1;strokeColor=none;fillColor=none;align=center;verticalAlign=middle;spacingLeft=4;spacingRight=4;overflow=hidden;rotatable=0;points=[[0,0.5],[1,0.5]];portConstraint=eastwest;" parent="SbKfyiGDVJVE8fYFORt4-44" vertex="1">
                    <mxGeometry y="55" width="140" height="20" as="geometry"/>
                </mxCell>
                <mxCell id="SbKfyiGDVJVE8fYFORt4-49" value="" style="line;strokeWidth=1;fillColor=none;align=left;verticalAlign=middle;spacingTop=-1;spacingLeft=3;spacingRight=3;rotatable=0;labelPosition=right;points=[];portConstraint=eastwest;" parent="SbKfyiGDVJVE8fYFORt4-44" vertex="1">
                    <mxGeometry y="75" width="140" height="8" as="geometry"/>
                </mxCell>
                <mxCell id="SbKfyiGDVJVE8fYFORt4-50" value="operations" style="text;html=1;strokeColor=none;fillColor=none;align=center;verticalAlign=middle;spacingLeft=4;spacingRight=4;overflow=hidden;rotatable=0;points=[[0,0.5],[1,0.5]];portConstraint=eastwest;" parent="SbKfyiGDVJVE8fYFORt4-44" vertex="1">
                    <mxGeometry y="83" width="140" height="20" as="geometry"/>
                </mxCell>
                <mxCell id="SbKfyiGDVJVE8fYFORt4-51" value="+ getPlayerAction()" style="text;html=1;strokeColor=none;fillColor=none;align=left;verticalAlign=middle;spacingLeft=4;spacingRight=4;overflow=hidden;rotatable=0;points=[[0,0.5],[1,0.5]];portConstraint=eastwest;" parent="SbKfyiGDVJVE8fYFORt4-44" vertex="1">
                    <mxGeometry y="103" width="140" height="20" as="geometry"/>
                </mxCell>
                <mxCell id="SbKfyiGDVJVE8fYFORt4-56" style="edgeStyle=orthogonalEdgeStyle;html=1;endSize=10;endArrow=block;endFill=1;" parent="1" source="SbKfyiGDVJVE8fYFORt4-32" target="SbKfyiGDVJVE8fYFORt4-44" edge="1">
                    <mxGeometry relative="1" as="geometry"/>
                </mxCell>
                <mxCell id="SbKfyiGDVJVE8fYFORt4-68" style="edgeStyle=orthogonalEdgeStyle;html=1;" parent="1" source="SbKfyiGDVJVE8fYFORt4-65" target="SbKfyiGDVJVE8fYFORt4-51" edge="1">
                    <mxGeometry relative="1" as="geometry"/>
                </mxCell>
                <mxCell id="SbKfyiGDVJVE8fYFORt4-26" value="ICards" style="shape=folder;fontStyle=1;tabWidth=110;tabHeight=30;tabPosition=left;html=1;boundedLbl=1;labelInHeader=1;container=1;collapsible=0;recursiveResize=0;" parent="1" vertex="1">
                    <mxGeometry x="780" y="1000" width="820" height="990" as="geometry"/>
                </mxCell>
                <mxCell id="WN_rquTQNeKYTeGUbTo1-19" style="edgeStyle=orthogonalEdgeStyle;html=1;endArrow=diamondThin;endFill=1;endSize=20;startSize=6;" parent="SbKfyiGDVJVE8fYFORt4-26" source="SbKfyiGDVJVE8fYFORt4-71" target="WN_rquTQNeKYTeGUbTo1-11" edge="1">
                    <mxGeometry relative="1" as="geometry"/>
                </mxCell>
                <mxCell id="SbKfyiGDVJVE8fYFORt4-71" value="&amp;lt;&amp;lt;Interface&amp;gt;&amp;gt;&lt;br&gt;&lt;b&gt;ICardSuperList&lt;/b&gt;" style="swimlane;fontStyle=0;align=center;verticalAlign=top;childLayout=stackLayout;horizontal=1;startSize=55;horizontalStack=0;resizeParent=1;resizeParentMax=0;resizeLast=0;collapsible=0;marginBottom=0;html=1;" parent="SbKfyiGDVJVE8fYFORt4-26" vertex="1">
                    <mxGeometry x="50" y="680" width="140" height="123" as="geometry"/>
                </mxCell>
                <mxCell id="SbKfyiGDVJVE8fYFORt4-72" value="attributes" style="text;html=1;strokeColor=none;fillColor=none;align=center;verticalAlign=middle;spacingLeft=4;spacingRight=4;overflow=hidden;rotatable=0;points=[[0,0.5],[1,0.5]];portConstraint=eastwest;" parent="SbKfyiGDVJVE8fYFORt4-71" vertex="1">
                    <mxGeometry y="55" width="140" height="20" as="geometry"/>
                </mxCell>
                <mxCell id="SbKfyiGDVJVE8fYFORt4-76" value="" style="line;strokeWidth=1;fillColor=none;align=left;verticalAlign=middle;spacingTop=-1;spacingLeft=3;spacingRight=3;rotatable=0;labelPosition=right;points=[];portConstraint=eastwest;" parent="SbKfyiGDVJVE8fYFORt4-71" vertex="1">
                    <mxGeometry y="75" width="140" height="8" as="geometry"/>
                </mxCell>
                <mxCell id="SbKfyiGDVJVE8fYFORt4-77" value="operations" style="text;html=1;strokeColor=none;fillColor=none;align=center;verticalAlign=middle;spacingLeft=4;spacingRight=4;overflow=hidden;rotatable=0;points=[[0,0.5],[1,0.5]];portConstraint=eastwest;" parent="SbKfyiGDVJVE8fYFORt4-71" vertex="1">
                    <mxGeometry y="83" width="140" height="20" as="geometry"/>
                </mxCell>
                <mxCell id="SbKfyiGDVJVE8fYFORt4-78" value="+ cardIsInList" style="text;html=1;strokeColor=none;fillColor=none;align=left;verticalAlign=middle;spacingLeft=4;spacingRight=4;overflow=hidden;rotatable=0;points=[[0,0.5],[1,0.5]];portConstraint=eastwest;" parent="SbKfyiGDVJVE8fYFORt4-71" vertex="1">
                    <mxGeometry y="103" width="140" height="20" as="geometry"/>
                </mxCell>
                <mxCell id="SbKfyiGDVJVE8fYFORt4-99" style="edgeStyle=orthogonalEdgeStyle;html=1;endArrow=block;endFill=1;endSize=10;" parent="SbKfyiGDVJVE8fYFORt4-26" source="SbKfyiGDVJVE8fYFORt4-82" target="WN_rquTQNeKYTeGUbTo1-1" edge="1">
                    <mxGeometry relative="1" as="geometry"/>
                </mxCell>
                <mxCell id="SbKfyiGDVJVE8fYFORt4-82" value="&amp;lt;&amp;lt;Interface&amp;gt;&amp;gt;&lt;br&gt;&lt;b&gt;ICardDeck&lt;/b&gt;&lt;br&gt;" style="swimlane;fontStyle=0;align=center;verticalAlign=top;childLayout=stackLayout;horizontal=1;startSize=55;horizontalStack=0;resizeParent=1;resizeParentMax=0;resizeLast=0;collapsible=0;marginBottom=0;html=1;" parent="SbKfyiGDVJVE8fYFORt4-26" vertex="1">
                    <mxGeometry x="240" y="150" width="140" height="123" as="geometry"/>
                </mxCell>
                <mxCell id="SbKfyiGDVJVE8fYFORt4-83" value="attributes" style="text;html=1;strokeColor=none;fillColor=none;align=center;verticalAlign=middle;spacingLeft=4;spacingRight=4;overflow=hidden;rotatable=0;points=[[0,0.5],[1,0.5]];portConstraint=eastwest;" parent="SbKfyiGDVJVE8fYFORt4-82" vertex="1">
                    <mxGeometry y="55" width="140" height="20" as="geometry"/>
                </mxCell>
                <mxCell id="SbKfyiGDVJVE8fYFORt4-87" value="" style="line;strokeWidth=1;fillColor=none;align=left;verticalAlign=middle;spacingTop=-1;spacingLeft=3;spacingRight=3;rotatable=0;labelPosition=right;points=[];portConstraint=eastwest;" parent="SbKfyiGDVJVE8fYFORt4-82" vertex="1">
                    <mxGeometry y="75" width="140" height="8" as="geometry"/>
                </mxCell>
                <mxCell id="SbKfyiGDVJVE8fYFORt4-88" value="operations" style="text;html=1;strokeColor=none;fillColor=none;align=center;verticalAlign=middle;spacingLeft=4;spacingRight=4;overflow=hidden;rotatable=0;points=[[0,0.5],[1,0.5]];portConstraint=eastwest;" parent="SbKfyiGDVJVE8fYFORt4-82" vertex="1">
                    <mxGeometry y="83" width="140" height="20" as="geometry"/>
                </mxCell>
                <mxCell id="SbKfyiGDVJVE8fYFORt4-131" value="+ valueHigherThan" style="text;html=1;strokeColor=none;fillColor=none;align=left;verticalAlign=middle;spacingLeft=4;spacingRight=4;overflow=hidden;rotatable=0;points=[[0,0.5],[1,0.5]];portConstraint=eastwest;" parent="SbKfyiGDVJVE8fYFORt4-82" vertex="1">
                    <mxGeometry y="103" width="140" height="20" as="geometry"/>
                </mxCell>
                <mxCell id="SbKfyiGDVJVE8fYFORt4-100" value="ICardDeck is a special CardList&lt;br&gt;It is special, because it&lt;br&gt;represents the totality of&lt;br&gt;all available cards. In some sense it defines what counts as a card: Whatever is in the Deck must be a card." style="shape=note2;boundedLbl=1;whiteSpace=wrap;html=1;size=25;verticalAlign=top;align=center;" parent="SbKfyiGDVJVE8fYFORt4-26" vertex="1">
                    <mxGeometry x="410" y="157" width="140" height="180" as="geometry"/>
                </mxCell>
                <mxCell id="SbKfyiGDVJVE8fYFORt4-111" style="edgeStyle=orthogonalEdgeStyle;jumpSize=16;html=1;strokeWidth=1;endArrow=block;endFill=1;endSize=10;entryX=0.5;entryY=0;entryDx=0;entryDy=0;" parent="SbKfyiGDVJVE8fYFORt4-26" source="SbKfyiGDVJVE8fYFORt4-103" target="SbKfyiGDVJVE8fYFORt4-82" edge="1">
                    <mxGeometry relative="1" as="geometry"/>
                </mxCell>
                <mxCell id="WN_rquTQNeKYTeGUbTo1-47" style="edgeStyle=orthogonalEdgeStyle;html=1;endArrow=diamondThin;endFill=1;startSize=6;endSize=20;" parent="SbKfyiGDVJVE8fYFORt4-26" source="SbKfyiGDVJVE8fYFORt4-103" target="WN_rquTQNeKYTeGUbTo1-20" edge="1">
                    <mxGeometry relative="1" as="geometry"/>
                </mxCell>
                <mxCell id="SbKfyiGDVJVE8fYFORt4-103" value="&lt;br&gt;&lt;b&gt;Standard52CardDeck&lt;br&gt;&lt;/b&gt;" style="swimlane;fontStyle=0;align=center;verticalAlign=top;childLayout=stackLayout;horizontal=1;startSize=55;horizontalStack=0;resizeParent=1;resizeParentMax=0;resizeLast=0;collapsible=0;marginBottom=0;html=1;" parent="SbKfyiGDVJVE8fYFORt4-26" vertex="1">
                    <mxGeometry x="610" y="50" width="140" height="143" as="geometry"/>
                </mxCell>
                <mxCell id="SbKfyiGDVJVE8fYFORt4-104" value="attributes" style="text;html=1;strokeColor=none;fillColor=none;align=center;verticalAlign=middle;spacingLeft=4;spacingRight=4;overflow=hidden;rotatable=0;points=[[0,0.5],[1,0.5]];portConstraint=eastwest;" parent="SbKfyiGDVJVE8fYFORt4-103" vertex="1">
                    <mxGeometry y="55" width="140" height="20" as="geometry"/>
                </mxCell>
                <mxCell id="SbKfyiGDVJVE8fYFORt4-105" value="- cards" style="text;html=1;strokeColor=none;fillColor=none;align=left;verticalAlign=middle;spacingLeft=4;spacingRight=4;overflow=hidden;rotatable=0;points=[[0,0.5],[1,0.5]];portConstraint=eastwest;" parent="SbKfyiGDVJVE8fYFORt4-103" vertex="1">
                    <mxGeometry y="75" width="140" height="20" as="geometry"/>
                </mxCell>
                <mxCell id="SbKfyiGDVJVE8fYFORt4-108" value="" style="line;strokeWidth=1;fillColor=none;align=left;verticalAlign=middle;spacingTop=-1;spacingLeft=3;spacingRight=3;rotatable=0;labelPosition=right;points=[];portConstraint=eastwest;" parent="SbKfyiGDVJVE8fYFORt4-103" vertex="1">
                    <mxGeometry y="95" width="140" height="8" as="geometry"/>
                </mxCell>
                <mxCell id="SbKfyiGDVJVE8fYFORt4-109" value="operations" style="text;html=1;strokeColor=none;fillColor=none;align=center;verticalAlign=middle;spacingLeft=4;spacingRight=4;overflow=hidden;rotatable=0;points=[[0,0.5],[1,0.5]];portConstraint=eastwest;" parent="SbKfyiGDVJVE8fYFORt4-103" vertex="1">
                    <mxGeometry y="103" width="140" height="20" as="geometry"/>
                </mxCell>
                <mxCell id="SbKfyiGDVJVE8fYFORt4-110" value="operation1" style="text;html=1;strokeColor=none;fillColor=none;align=left;verticalAlign=middle;spacingLeft=4;spacingRight=4;overflow=hidden;rotatable=0;points=[[0,0.5],[1,0.5]];portConstraint=eastwest;" parent="SbKfyiGDVJVE8fYFORt4-103" vertex="1">
                    <mxGeometry y="123" width="140" height="20" as="geometry"/>
                </mxCell>
                <mxCell id="WN_rquTQNeKYTeGUbTo1-10" style="edgeStyle=orthogonalEdgeStyle;html=1;endArrow=diamondThin;endFill=1;endSize=20;" parent="SbKfyiGDVJVE8fYFORt4-26" source="WN_rquTQNeKYTeGUbTo1-1" target="SbKfyiGDVJVE8fYFORt4-71" edge="1">
                    <mxGeometry relative="1" as="geometry"/>
                </mxCell>
                <mxCell id="WN_rquTQNeKYTeGUbTo1-1" value="&lt;br&gt;&lt;b&gt;ICardSubList&lt;/b&gt;" style="swimlane;fontStyle=0;align=center;verticalAlign=top;childLayout=stackLayout;horizontal=1;startSize=55;horizontalStack=0;resizeParent=1;resizeParentMax=0;resizeLast=0;collapsible=0;marginBottom=0;html=1;" parent="SbKfyiGDVJVE8fYFORt4-26" vertex="1">
                    <mxGeometry x="50" y="337" width="140" height="223" as="geometry"/>
                </mxCell>
                <mxCell id="WN_rquTQNeKYTeGUbTo1-2" value="attributes" style="text;html=1;strokeColor=none;fillColor=none;align=center;verticalAlign=middle;spacingLeft=4;spacingRight=4;overflow=hidden;rotatable=0;points=[[0,0.5],[1,0.5]];portConstraint=eastwest;" parent="WN_rquTQNeKYTeGUbTo1-1" vertex="1">
                    <mxGeometry y="55" width="140" height="20" as="geometry"/>
                </mxCell>
                <mxCell id="WN_rquTQNeKYTeGUbTo1-6" value="" style="line;strokeWidth=1;fillColor=none;align=left;verticalAlign=middle;spacingTop=-1;spacingLeft=3;spacingRight=3;rotatable=0;labelPosition=right;points=[];portConstraint=eastwest;" parent="WN_rquTQNeKYTeGUbTo1-1" vertex="1">
                    <mxGeometry y="75" width="140" height="8" as="geometry"/>
                </mxCell>
                <mxCell id="WN_rquTQNeKYTeGUbTo1-7" value="operations" style="text;html=1;strokeColor=none;fillColor=none;align=center;verticalAlign=middle;spacingLeft=4;spacingRight=4;overflow=hidden;rotatable=0;points=[[0,0.5],[1,0.5]];portConstraint=eastwest;" parent="WN_rquTQNeKYTeGUbTo1-1" vertex="1">
                    <mxGeometry y="83" width="140" height="20" as="geometry"/>
                </mxCell>
                <mxCell id="WN_rquTQNeKYTeGUbTo1-29" value="+ cardIsInList" style="text;html=1;strokeColor=none;fillColor=none;align=left;verticalAlign=middle;spacingLeft=4;spacingRight=4;overflow=hidden;rotatable=0;points=[[0,0.5],[1,0.5]];portConstraint=eastwest;" parent="WN_rquTQNeKYTeGUbTo1-1" vertex="1">
                    <mxGeometry y="103" width="140" height="20" as="geometry"/>
                </mxCell>
                <mxCell id="WN_rquTQNeKYTeGUbTo1-30" value="+ IsCard" style="text;html=1;strokeColor=none;fillColor=none;align=left;verticalAlign=middle;spacingLeft=4;spacingRight=4;overflow=hidden;rotatable=0;points=[[0,0.5],[1,0.5]];portConstraint=eastwest;" parent="WN_rquTQNeKYTeGUbTo1-1" vertex="1">
                    <mxGeometry y="123" width="140" height="20" as="geometry"/>
                </mxCell>
                <mxCell id="SbKfyiGDVJVE8fYFORt4-81" value="+ addCard" style="text;html=1;strokeColor=none;fillColor=none;align=left;verticalAlign=middle;spacingLeft=4;spacingRight=4;overflow=hidden;rotatable=0;points=[[0,0.5],[1,0.5]];portConstraint=eastwest;" parent="WN_rquTQNeKYTeGUbTo1-1" vertex="1">
                    <mxGeometry y="143" width="140" height="20" as="geometry"/>
                </mxCell>
                <mxCell id="SbKfyiGDVJVE8fYFORt4-89" value="+ getAllCards" style="text;html=1;strokeColor=none;fillColor=none;align=left;verticalAlign=middle;spacingLeft=4;spacingRight=4;overflow=hidden;rotatable=0;points=[[0,0.5],[1,0.5]];portConstraint=eastwest;" parent="WN_rquTQNeKYTeGUbTo1-1" vertex="1">
                    <mxGeometry y="163" width="140" height="20" as="geometry"/>
                </mxCell>
                <mxCell id="SbKfyiGDVJVE8fYFORt4-80" value="+ removeCard" style="text;html=1;strokeColor=none;fillColor=none;align=left;verticalAlign=middle;spacingLeft=4;spacingRight=4;overflow=hidden;rotatable=0;points=[[0,0.5],[1,0.5]];portConstraint=eastwest;" parent="WN_rquTQNeKYTeGUbTo1-1" vertex="1">
                    <mxGeometry y="183" width="140" height="20" as="geometry"/>
                </mxCell>
                <mxCell id="SbKfyiGDVJVE8fYFORt4-121" value="+ getRandomCard" style="text;html=1;strokeColor=none;fillColor=none;align=left;verticalAlign=middle;spacingLeft=4;spacingRight=4;overflow=hidden;rotatable=0;points=[[0,0.5],[1,0.5]];portConstraint=eastwest;" parent="WN_rquTQNeKYTeGUbTo1-1" vertex="1">
                    <mxGeometry y="203" width="140" height="20" as="geometry"/>
                </mxCell>
                <mxCell id="WN_rquTQNeKYTeGUbTo1-11" value="&amp;lt;&amp;lt;Interface&amp;gt;&amp;gt;&lt;br&gt;&lt;b&gt;Card&lt;/b&gt;&lt;br&gt;" style="swimlane;fontStyle=0;align=center;verticalAlign=top;childLayout=stackLayout;horizontal=1;startSize=55;horizontalStack=0;resizeParent=1;resizeParentMax=0;resizeLast=0;collapsible=0;marginBottom=0;html=1;" parent="SbKfyiGDVJVE8fYFORt4-26" vertex="1">
                    <mxGeometry x="290" y="680" width="140" height="123" as="geometry"/>
                </mxCell>
                <mxCell id="WN_rquTQNeKYTeGUbTo1-12" value="attributes" style="text;html=1;strokeColor=none;fillColor=none;align=center;verticalAlign=middle;spacingLeft=4;spacingRight=4;overflow=hidden;rotatable=0;points=[[0,0.5],[1,0.5]];portConstraint=eastwest;" parent="WN_rquTQNeKYTeGUbTo1-11" vertex="1">
                    <mxGeometry y="55" width="140" height="20" as="geometry"/>
                </mxCell>
                <mxCell id="WN_rquTQNeKYTeGUbTo1-16" value="" style="line;strokeWidth=1;fillColor=none;align=left;verticalAlign=middle;spacingTop=-1;spacingLeft=3;spacingRight=3;rotatable=0;labelPosition=right;points=[];portConstraint=eastwest;" parent="WN_rquTQNeKYTeGUbTo1-11" vertex="1">
                    <mxGeometry y="75" width="140" height="8" as="geometry"/>
                </mxCell>
                <mxCell id="WN_rquTQNeKYTeGUbTo1-17" value="operations" style="text;html=1;strokeColor=none;fillColor=none;align=center;verticalAlign=middle;spacingLeft=4;spacingRight=4;overflow=hidden;rotatable=0;points=[[0,0.5],[1,0.5]];portConstraint=eastwest;" parent="WN_rquTQNeKYTeGUbTo1-11" vertex="1">
                    <mxGeometry y="83" width="140" height="20" as="geometry"/>
                </mxCell>
                <mxCell id="WN_rquTQNeKYTeGUbTo1-18" value="+ getRepresentation" style="text;html=1;strokeColor=none;fillColor=none;align=left;verticalAlign=middle;spacingLeft=4;spacingRight=4;overflow=hidden;rotatable=0;points=[[0,0.5],[1,0.5]];portConstraint=eastwest;" parent="WN_rquTQNeKYTeGUbTo1-11" vertex="1">
                    <mxGeometry y="103" width="140" height="20" as="geometry"/>
                </mxCell>
                <mxCell id="WN_rquTQNeKYTeGUbTo1-28" style="edgeStyle=orthogonalEdgeStyle;html=1;endArrow=block;endFill=1;startSize=6;endSize=10;" parent="SbKfyiGDVJVE8fYFORt4-26" source="WN_rquTQNeKYTeGUbTo1-20" target="WN_rquTQNeKYTeGUbTo1-11" edge="1">
                    <mxGeometry relative="1" as="geometry"/>
                </mxCell>
                <mxCell id="WN_rquTQNeKYTeGUbTo1-39" style="edgeStyle=orthogonalEdgeStyle;html=1;endArrow=block;endFill=1;startSize=6;endSize=10;" parent="SbKfyiGDVJVE8fYFORt4-26" source="WN_rquTQNeKYTeGUbTo1-20" target="WN_rquTQNeKYTeGUbTo1-31" edge="1">
                    <mxGeometry relative="1" as="geometry"/>
                </mxCell>
                <mxCell id="WN_rquTQNeKYTeGUbTo1-45" style="edgeStyle=orthogonalEdgeStyle;html=1;endArrow=block;endFill=1;startSize=6;endSize=10;" parent="SbKfyiGDVJVE8fYFORt4-26" source="WN_rquTQNeKYTeGUbTo1-20" target="WN_rquTQNeKYTeGUbTo1-40" edge="1">
                    <mxGeometry relative="1" as="geometry"/>
                </mxCell>
                <mxCell id="WN_rquTQNeKYTeGUbTo1-20" value="&lt;br&gt;&lt;b&gt;StandardCard&lt;/b&gt;&lt;br&gt;" style="swimlane;fontStyle=0;align=center;verticalAlign=top;childLayout=stackLayout;horizontal=1;startSize=55;horizontalStack=0;resizeParent=1;resizeParentMax=0;resizeLast=0;collapsible=0;marginBottom=0;html=1;" parent="SbKfyiGDVJVE8fYFORt4-26" vertex="1">
                    <mxGeometry x="550" y="480" width="140" height="143" as="geometry"/>
                </mxCell>
                <mxCell id="WN_rquTQNeKYTeGUbTo1-21" value="attributes" style="text;html=1;strokeColor=none;fillColor=none;align=center;verticalAlign=middle;spacingLeft=4;spacingRight=4;overflow=hidden;rotatable=0;points=[[0,0.5],[1,0.5]];portConstraint=eastwest;" parent="WN_rquTQNeKYTeGUbTo1-20" vertex="1">
                    <mxGeometry y="55" width="140" height="20" as="geometry"/>
                </mxCell>
                <mxCell id="WN_rquTQNeKYTeGUbTo1-22" value="Value" style="text;html=1;strokeColor=none;fillColor=none;align=left;verticalAlign=middle;spacingLeft=4;spacingRight=4;overflow=hidden;rotatable=0;points=[[0,0.5],[1,0.5]];portConstraint=eastwest;" parent="WN_rquTQNeKYTeGUbTo1-20" vertex="1">
                    <mxGeometry y="75" width="140" height="20" as="geometry"/>
                </mxCell>
                <mxCell id="WN_rquTQNeKYTeGUbTo1-46" value="Suit" style="text;html=1;strokeColor=none;fillColor=none;align=left;verticalAlign=middle;spacingLeft=4;spacingRight=4;overflow=hidden;rotatable=0;points=[[0,0.5],[1,0.5]];portConstraint=eastwest;" parent="WN_rquTQNeKYTeGUbTo1-20" vertex="1">
                    <mxGeometry y="95" width="140" height="20" as="geometry"/>
                </mxCell>
                <mxCell id="WN_rquTQNeKYTeGUbTo1-25" value="" style="line;strokeWidth=1;fillColor=none;align=left;verticalAlign=middle;spacingTop=-1;spacingLeft=3;spacingRight=3;rotatable=0;labelPosition=right;points=[];portConstraint=eastwest;" parent="WN_rquTQNeKYTeGUbTo1-20" vertex="1">
                    <mxGeometry y="115" width="140" height="8" as="geometry"/>
                </mxCell>
                <mxCell id="WN_rquTQNeKYTeGUbTo1-26" value="operations" style="text;html=1;strokeColor=none;fillColor=none;align=center;verticalAlign=middle;spacingLeft=4;spacingRight=4;overflow=hidden;rotatable=0;points=[[0,0.5],[1,0.5]];portConstraint=eastwest;" parent="WN_rquTQNeKYTeGUbTo1-20" vertex="1">
                    <mxGeometry y="123" width="140" height="20" as="geometry"/>
                </mxCell>
                <mxCell id="WN_rquTQNeKYTeGUbTo1-31" value="&amp;lt;&amp;lt;Interface&amp;gt;&amp;gt;&lt;br&gt;&lt;b&gt;ValuedCard&lt;/b&gt;&lt;br&gt;{abstract}" style="swimlane;fontStyle=0;align=center;verticalAlign=top;childLayout=stackLayout;horizontal=1;startSize=55;horizontalStack=0;resizeParent=1;resizeParentMax=0;resizeLast=0;collapsible=0;marginBottom=0;html=1;" parent="SbKfyiGDVJVE8fYFORt4-26" vertex="1">
                    <mxGeometry x="460" y="803" width="140" height="123" as="geometry"/>
                </mxCell>
                <mxCell id="WN_rquTQNeKYTeGUbTo1-32" value="attributes" style="text;html=1;strokeColor=none;fillColor=none;align=center;verticalAlign=middle;spacingLeft=4;spacingRight=4;overflow=hidden;rotatable=0;points=[[0,0.5],[1,0.5]];portConstraint=eastwest;" parent="WN_rquTQNeKYTeGUbTo1-31" vertex="1">
                    <mxGeometry y="55" width="140" height="20" as="geometry"/>
                </mxCell>
                <mxCell id="WN_rquTQNeKYTeGUbTo1-36" value="" style="line;strokeWidth=1;fillColor=none;align=left;verticalAlign=middle;spacingTop=-1;spacingLeft=3;spacingRight=3;rotatable=0;labelPosition=right;points=[];portConstraint=eastwest;" parent="WN_rquTQNeKYTeGUbTo1-31" vertex="1">
                    <mxGeometry y="75" width="140" height="8" as="geometry"/>
                </mxCell>
                <mxCell id="WN_rquTQNeKYTeGUbTo1-37" value="operations" style="text;html=1;strokeColor=none;fillColor=none;align=center;verticalAlign=middle;spacingLeft=4;spacingRight=4;overflow=hidden;rotatable=0;points=[[0,0.5],[1,0.5]];portConstraint=eastwest;" parent="WN_rquTQNeKYTeGUbTo1-31" vertex="1">
                    <mxGeometry y="83" width="140" height="20" as="geometry"/>
                </mxCell>
                <mxCell id="WN_rquTQNeKYTeGUbTo1-38" value="+ getValue" style="text;html=1;strokeColor=none;fillColor=none;align=left;verticalAlign=middle;spacingLeft=4;spacingRight=4;overflow=hidden;rotatable=0;points=[[0,0.5],[1,0.5]];portConstraint=eastwest;" parent="WN_rquTQNeKYTeGUbTo1-31" vertex="1">
                    <mxGeometry y="103" width="140" height="20" as="geometry"/>
                </mxCell>
                <mxCell id="WN_rquTQNeKYTeGUbTo1-40" value="&amp;lt;&amp;lt;Interface&amp;gt;&amp;gt;&lt;br&gt;&lt;b&gt;SuitedCard&lt;/b&gt;&lt;br&gt;{abstract}" style="swimlane;fontStyle=0;align=center;verticalAlign=top;childLayout=stackLayout;horizontal=1;startSize=55;horizontalStack=0;resizeParent=1;resizeParentMax=0;resizeLast=0;collapsible=0;marginBottom=0;html=1;" parent="SbKfyiGDVJVE8fYFORt4-26" vertex="1">
                    <mxGeometry x="625" y="803" width="140" height="123" as="geometry"/>
                </mxCell>
                <mxCell id="WN_rquTQNeKYTeGUbTo1-41" value="attributes" style="text;html=1;strokeColor=none;fillColor=none;align=center;verticalAlign=middle;spacingLeft=4;spacingRight=4;overflow=hidden;rotatable=0;points=[[0,0.5],[1,0.5]];portConstraint=eastwest;" parent="WN_rquTQNeKYTeGUbTo1-40" vertex="1">
                    <mxGeometry y="55" width="140" height="20" as="geometry"/>
                </mxCell>
                <mxCell id="WN_rquTQNeKYTeGUbTo1-42" value="" style="line;strokeWidth=1;fillColor=none;align=left;verticalAlign=middle;spacingTop=-1;spacingLeft=3;spacingRight=3;rotatable=0;labelPosition=right;points=[];portConstraint=eastwest;" parent="WN_rquTQNeKYTeGUbTo1-40" vertex="1">
                    <mxGeometry y="75" width="140" height="8" as="geometry"/>
                </mxCell>
                <mxCell id="WN_rquTQNeKYTeGUbTo1-43" value="operations" style="text;html=1;strokeColor=none;fillColor=none;align=center;verticalAlign=middle;spacingLeft=4;spacingRight=4;overflow=hidden;rotatable=0;points=[[0,0.5],[1,0.5]];portConstraint=eastwest;" parent="WN_rquTQNeKYTeGUbTo1-40" vertex="1">
                    <mxGeometry y="83" width="140" height="20" as="geometry"/>
                </mxCell>
                <mxCell id="WN_rquTQNeKYTeGUbTo1-44" value="+ getSuit" style="text;html=1;strokeColor=none;fillColor=none;align=left;verticalAlign=middle;spacingLeft=4;spacingRight=4;overflow=hidden;rotatable=0;points=[[0,0.5],[1,0.5]];portConstraint=eastwest;" parent="WN_rquTQNeKYTeGUbTo1-40" vertex="1">
                    <mxGeometry y="103" width="140" height="20" as="geometry"/>
                </mxCell>
                <mxCell id="SbKfyiGDVJVE8fYFORt4-79" style="edgeStyle=orthogonalEdgeStyle;html=1;" parent="1" source="SbKfyiGDVJVE8fYFORt4-58" target="SbKfyiGDVJVE8fYFORt4-13" edge="1">
                    <mxGeometry relative="1" as="geometry"/>
                </mxCell>
                <mxCell id="SbKfyiGDVJVE8fYFORt4-123" style="edgeStyle=orthogonalEdgeStyle;jumpSize=16;html=1;entryX=0.25;entryY=0;entryDx=0;entryDy=0;strokeWidth=1;endArrow=diamondThin;endFill=1;endSize=20;" parent="1" source="SbKfyiGDVJVE8fYFORt4-122" target="SbKfyiGDVJVE8fYFORt4-82" edge="1">
                    <mxGeometry relative="1" as="geometry"/>
                </mxCell>
                <mxCell id="SbKfyiGDVJVE8fYFORt4-125" style="edgeStyle=orthogonalEdgeStyle;jumpSize=16;html=1;strokeWidth=1;endArrow=block;endFill=1;endSize=10;" parent="1" source="SbKfyiGDVJVE8fYFORt4-124" target="SbKfyiGDVJVE8fYFORt4-44" edge="1">
                    <mxGeometry relative="1" as="geometry"/>
                </mxCell>
                <mxCell id="SbKfyiGDVJVE8fYFORt4-129" style="edgeStyle=orthogonalEdgeStyle;jumpSize=16;html=1;strokeWidth=1;endArrow=diamondThin;endFill=0;endSize=20;" parent="1" source="SbKfyiGDVJVE8fYFORt4-128" target="WN_rquTQNeKYTeGUbTo1-1" edge="1">
                    <mxGeometry relative="1" as="geometry"/>
                </mxCell>
                <mxCell id="SbKfyiGDVJVE8fYFORt4-130" style="edgeStyle=orthogonalEdgeStyle;jumpSize=16;html=1;entryX=0.5;entryY=1;entryDx=0;entryDy=0;entryPerimeter=0;strokeWidth=1;endArrow=block;endFill=1;endSize=10;" parent="1" source="SbKfyiGDVJVE8fYFORt4-34" target="SbKfyiGDVJVE8fYFORt4-7" edge="1">
                    <mxGeometry relative="1" as="geometry"/>
                </mxCell>
            </root>
        </mxGraphModel>
    </diagram>
</mxfile>